<svg width="25" height="25" viewBox="0 0 25 25" fill="none" xmlns="http://www.w3.org/2000/svg">
<path d="M8.81445 13.2323H10.2794V14.6972H8.81445V13.2323Z" fill="white"/>
<path d="M25 16.9184C24.9972 15.1529 24.4176 13.4366 23.3494 12.0309C22.2812 10.6251 20.783 9.60691 19.0827 9.1312C19.0197 7.68203 18.6273 6.26627 17.9352 4.99147C17.2432 3.71667 16.2697 2.61635 15.0887 1.77409C13.9077 0.931825 12.5504 0.369775 11.1197 0.130628C9.68898 -0.108518 8.2226 -0.0184726 6.83192 0.393926C5.44124 0.806325 4.16282 1.53023 3.09379 2.51066C2.02475 3.49108 1.19321 4.70224 0.662319 6.05214C0.13143 7.40204 -0.0848424 8.85518 0.0299293 10.3012C0.144701 11.7472 0.587498 13.148 1.32469 14.3972L0.0359887 19.0558L4.69455 17.7671C6.04292 18.5637 7.56716 19.015 9.13188 19.0808C9.46422 20.2757 10.0671 21.3781 10.8938 22.3027C11.7205 23.2273 12.7488 23.9493 13.8993 24.4127C15.0497 24.8761 16.2914 25.0686 17.5281 24.9753C18.7649 24.8819 19.9636 24.5052 21.0314 23.8744L24.965 24.9631L23.875 21.0307C24.6125 19.7863 25.0011 18.3662 25 16.9196V16.9184ZM4.92579 16.1834L2.13716 16.9546L2.90837 14.166L2.73213 13.891C1.66202 12.2126 1.24922 10.1982 1.57293 8.23423C1.89663 6.27021 2.93405 4.49485 4.48618 3.24866C6.03832 2.00247 7.99591 1.37319 9.98347 1.48152C11.971 1.58985 13.8486 2.42816 15.2561 3.83566C16.6636 5.24317 17.5019 7.12076 17.6103 9.10832C17.7186 11.0959 17.0893 13.0535 15.8431 14.6056C14.5969 16.1578 12.8216 17.1952 10.8576 17.5189C8.89355 17.8426 6.87917 17.4298 5.20078 16.3597L4.92579 16.1834ZM22.8638 22.8632L20.7939 22.2907L20.5177 22.4707C19.671 23.0198 18.71 23.368 17.7081 23.4887C16.7062 23.6094 15.6899 23.4994 14.7371 23.1671C13.7842 22.8348 12.9199 22.289 12.2104 21.5714C11.5008 20.8539 10.9647 19.9836 10.6431 19.0271C12.7789 18.7759 14.7677 17.8121 16.2884 16.2915C17.8091 14.7708 18.7728 12.782 19.024 10.6461C19.9797 10.9688 20.8492 11.5054 21.566 12.2152C22.2828 12.9249 22.8281 13.7889 23.1603 14.7414C23.4925 15.6939 23.6027 16.7097 23.4827 17.7112C23.3626 18.7128 23.0154 19.6737 22.4676 20.5207L22.2876 20.797L22.8638 22.8632Z" fill="white"/>
<path d="M11.0118 7.32507C11.0128 7.52862 10.9709 7.73009 10.8888 7.91637C10.8068 8.10265 10.6864 8.26958 10.5356 8.40627L8.81568 9.98121V11.7699H10.2806V10.6274L11.5306 9.48873C11.8904 9.15995 12.1626 8.74659 12.3224 8.28608C12.4822 7.82557 12.5246 7.33246 12.4457 6.85144C12.3668 6.37043 12.1691 5.91669 11.8706 5.53135C11.5721 5.146 11.1821 4.84122 10.7361 4.64463C10.2901 4.44803 9.80202 4.36582 9.31619 4.40545C8.83036 4.44509 8.36208 4.60531 7.9538 4.8716C7.54553 5.13789 7.21014 5.50184 6.97802 5.93047C6.74591 6.3591 6.6244 6.83887 6.62451 7.32632H8.08945C8.08945 6.93779 8.2438 6.56518 8.51853 6.29045C8.79326 6.01572 9.16588 5.86137 9.55441 5.86137C9.94293 5.86137 10.3155 6.01572 10.5903 6.29045C10.865 6.56518 11.0193 6.93779 11.0193 7.32632L11.0118 7.32507Z" fill="white"/>
</svg>
