<svg width="50" height="51" viewBox="0 0 50 51" fill="none" xmlns="http://www.w3.org/2000/svg">
<path fill-rule="evenodd" clip-rule="evenodd" d="M9.37348 21.3763C8.78644 21.5105 8.19055 21.6294 7.58706 21.7559L7.55037 21.7635C6.64721 21.9854 5.70738 22.0143 4.7923 21.8483C4.45179 21.7825 4.13711 21.621 3.88517 21.3827H1.38013V19.8733C1.28651 19.8569 1.10812 19.8569 1.10432 19.7683C1.08543 19.6668 1.09328 19.5622 1.1271 19.4647C1.18993 19.3013 1.23489 19.1316 1.2612 18.9586C1.20893 18.7834 1.13136 18.6167 1.03094 18.4639C0.953768 18.3501 0.516018 17.844 0.484389 17.8035C0.45276 17.763 0.221233 17.5239 0.200991 17.491C0.166011 17.3369 0.121217 17.1852 0.0668825 17.0368C-0.143136 16.952 0.1934 15.9842 0.362933 16.0247C0.446207 15.9455 0.547995 15.8886 0.658983 15.8589C0.783607 15.8519 0.905854 15.8219 1.01956 15.7704C1.0544 15.6926 1.08029 15.6111 1.09673 15.5275C1.08914 15.4946 0.886713 15.2744 0.877857 15.22C0.904124 15.056 0.940461 14.8937 0.986662 14.7342L1.19668 14.4217L1.22957 14.0814C1.22957 14.0814 1.21692 13.8625 1.27386 13.8056C1.34926 13.7535 1.43086 13.711 1.51677 13.679V13.8245H9.43801C9.77454 13.8245 10.4628 13.7765 11.4952 13.679C12.0897 13.645 12.6764 13.5261 13.2373 13.3261C13.8085 13.1008 14.3139 12.7358 14.7074 12.2646C15.0576 11.8392 15.2482 11.3049 15.2464 10.754C15.2531 10.4303 15.1885 10.109 15.0574 9.81302C14.9262 9.51701 14.7316 9.25343 14.4873 9.04092C13.8059 8.51108 12.9917 8.17926 12.1341 8.08192C12.7137 7.96101 13.26 7.71488 13.7345 7.36077C13.9886 7.16812 14.195 6.91957 14.3376 6.63435C14.4802 6.34914 14.5552 6.03492 14.5569 5.71605C14.5464 5.32558 14.4351 4.94446 14.2338 4.60971C14.0325 4.27496 13.7481 3.99796 13.4081 3.80564C13.2017 3.66858 12.9817 3.55326 12.7515 3.46151C12.7111 3.39438 12.6588 3.3352 12.5971 3.28692C12.3683 3.01423 12.157 2.7273 11.9646 2.42786C11.9646 2.42786 11.5028 1.54224 11.604 1.54224C11.7052 1.54224 11.7305 1.48152 11.7862 1.5258C11.8679 1.57924 11.9611 1.61262 12.0582 1.62322C12.1429 1.63081 12.4112 1.6637 12.463 1.68015C12.5149 1.6966 12.8679 1.85474 12.9122 1.87878C13.0129 1.92672 13.1212 1.95669 13.2323 1.96734C13.3499 1.97493 13.9091 2.21026 13.9736 2.20266C14.0382 2.19507 14.6062 1.50176 14.6341 1.50176C14.6619 1.50176 15.3995 1.24872 15.4843 1.21836C15.6604 1.20395 15.8351 1.17561 16.0068 1.13359C16.0194 1.0969 16.7317 0.501008 16.7659 0.44534C16.8 0.389673 17.11 0 17.11 0C17.1333 0.11385 17.1983 0.214902 17.2922 0.283398C17.4263 0.360574 17.6654 0.316293 17.6717 0.344127C17.6793 0.401059 17.5136 0.664215 17.5452 0.717352C17.5769 0.77049 17.6717 0.903333 17.735 0.923575C17.8088 0.964548 17.8779 1.01333 17.9412 1.06907C17.9488 1.06907 17.9653 1.08552 18.0057 1.12221C17.9831 1.10589 17.9616 1.08815 17.9412 1.06907C17.9172 1.06907 18.0829 1.27529 18.0956 1.3221C18.1082 1.36892 18.2221 1.57514 18.2221 1.57514L18.3233 1.74088L18.3031 1.90661C18.2461 2.07389 18.1759 2.23635 18.093 2.39244C18.0135 2.59742 17.9525 2.80913 17.9109 3.02503V3.04527H17.1518V13.6727H29.1886V11.861H20.6626V8.99284H28.3055V7.28865H20.6386V4.88483H28.9052V3.03894H27.4958C27.5932 2.92508 27.5287 2.60119 27.5844 2.54426C27.9194 2.15003 28.2868 1.7844 28.6825 1.45115C29.0217 1.73975 29.3273 2.06569 29.5934 2.4228C29.6061 2.53161 29.658 3.49187 29.6706 3.56905C29.8483 3.94561 30.0627 4.3037 30.3108 4.63812C30.3994 4.69126 30.4082 4.86459 30.4601 4.93037C30.5063 4.99356 30.5457 5.0614 30.5777 5.1328V5.76539C30.5746 5.77376 30.5689 5.78088 30.5613 5.78563C30.4968 5.85015 30.3424 5.96781 30.3184 6.09813C30.0453 6.40525 29.7492 6.69115 29.4328 6.95338C29.3496 7.11985 29.2518 7.27862 29.1405 7.42782C29.1405 7.42782 28.914 7.96679 29.1974 8.13252C29.1974 8.13252 29.7604 8.32736 29.8174 7.50879C29.811 7.43892 29.8201 7.3685 29.8439 7.30249C29.8676 7.23648 29.9056 7.17647 29.955 7.12667C30.0044 7.07688 30.0642 7.03851 30.13 7.01426C30.1958 6.99 30.2662 6.98045 30.3361 6.98628C30.3639 6.98628 30.4538 6.98628 30.579 6.98628L30.5575 13.674H33.3118L33.3282 7.27474L33.4826 7.42023L33.5876 7.71249L33.7457 7.839C33.7851 7.81337 33.8276 7.79296 33.8723 7.77828C33.9149 7.77296 33.9572 7.76493 33.9988 7.75424L38.3408 13.8422L40.6814 10.4807C40.7243 10.5036 40.7692 10.5226 40.8155 10.5376C40.88 10.5503 41.4481 10.6641 41.5202 10.6717C41.694 10.7009 41.8708 10.709 42.0465 10.6958C42.1642 10.6717 42.626 10.506 42.7386 10.506C42.8952 10.5219 43.0499 10.5532 43.2004 10.5996L43.2282 13.6778H46.9794V13.3577C47.044 13.4753 47.1287 13.6854 47.1819 13.7056C47.235 13.7258 48.4015 14.0662 48.4698 14.0991C48.7073 14.2098 48.9249 14.359 49.1138 14.5406C49.1909 14.6823 49.3807 14.7937 49.4263 14.8974C49.4718 15.0011 49.6793 15.096 49.6793 15.2504C49.7032 15.4897 49.766 15.7234 49.8653 15.9424C49.9189 16.1304 49.9541 16.3232 49.9703 16.5181C50.0071 16.7186 50.0097 16.924 49.9779 17.1254C49.9635 17.3609 49.9322 17.5952 49.8843 17.8263C49.8197 18.0287 49.6692 18.5348 49.6578 18.6524C49.6464 18.7701 49.3858 18.9523 49.3744 19.032C49.363 19.1117 49.0821 19.1939 49.0062 19.285C48.9711 19.3304 48.9386 19.3777 48.9088 19.4267C48.9022 19.4248 48.8952 19.4248 48.8886 19.4267C48.879 19.4263 48.8695 19.4294 48.8621 19.4355C48.8546 19.4415 48.8496 19.4501 48.8481 19.4596L48.8 19.6051C48.7201 19.739 48.6291 19.866 48.528 19.9847C48.5153 19.9973 48.4951 20.0125 48.4749 20.0327H48.0574C48.0477 20.0323 48.0383 20.0354 48.0308 20.0415C48.0234 20.0475 48.0184 20.0561 48.0169 20.0656C48.0141 20.0751 48.0142 20.0852 48.0171 20.0947C48.0201 20.1041 48.0257 20.1125 48.0333 20.1188L48.2282 20.2643C48.0586 20.4262 47.8752 20.6084 47.8397 20.6577C47.7752 20.7463 47.2843 21.1195 47.2489 21.1967C47.2135 21.2739 46.9655 21.5699 46.9288 21.6585C46.8921 21.747 46.6214 22.0153 46.6087 22.0924C46.5744 22.2872 46.5145 22.4765 46.4303 22.6554C46.3291 22.8452 45.9812 23.2184 45.9407 23.2956C45.9002 23.3728 45.5801 23.7296 45.5801 23.7296C45.5801 23.7296 45.4625 23.8953 45.3271 23.7941C45.1917 23.6929 44.5617 24.228 44.5339 24.3293C44.506 24.4305 44.3922 24.4558 44.339 24.5962C44.2616 24.7794 44.2138 24.9737 44.1973 25.1719C44.2214 25.2604 44.1847 25.9651 44.1847 26.0575C44.1847 26.1498 44.2618 26.7495 44.2732 26.8634C44.2471 27.0996 44.2048 27.3338 44.1467 27.5643C44.1467 27.5643 44.0695 28.6131 44.0202 28.727C43.9117 28.9242 43.8235 29.1319 43.757 29.3469C43.7307 29.6111 43.6884 29.8735 43.6305 30.1326L43.4003 30.5121L43.17 30.7184C43.17 30.7184 43.146 30.9714 43.0688 31.0258C42.9916 31.0802 42.7968 31.0903 42.8259 31.2561C42.8894 31.4365 42.9077 31.6299 42.879 31.8191C42.7872 32.0724 42.6803 32.3199 42.5589 32.5605C42.394 32.8064 42.2441 33.062 42.1098 33.3259C42.1098 33.4145 41.7302 33.9775 41.7125 34.0432C41.6948 34.109 41.3798 34.6303 41.3722 34.6632C41.3646 34.6961 41.109 34.9263 41.085 35.0035C41.0135 35.1831 40.9593 35.3691 40.9231 35.5589C40.9433 35.6272 40.7004 35.9119 40.6839 35.9473C40.5603 36.0171 40.4261 36.0662 40.2867 36.0928C40.2297 36.1004 39.9261 36.1131 39.9071 36.17C39.8881 36.2269 39.7085 36.6482 39.7085 36.6482C39.7085 36.6482 39.7211 36.7823 39.6073 36.8026C39.4341 36.8552 39.2516 36.8703 39.0721 36.8469C38.9178 36.7937 38.7963 36.8595 38.6673 36.7203C38.5382 36.5812 38.5129 36.4901 38.3952 36.4407C38.2776 36.3914 38.1422 36.6596 38.1422 36.6596C38.1422 36.6596 38.1182 36.8696 38.0536 36.8696C37.9477 36.8418 37.8447 36.8037 37.7462 36.7558C37.6402 36.7486 37.5337 36.7567 37.4299 36.7798C37.4299 36.7798 37.3161 36.9658 37.2553 36.9784C37.1946 36.9911 37.0162 36.986 37.0023 36.9455C36.9622 36.8589 36.906 36.7808 36.8366 36.7153C36.7609 36.7143 36.6852 36.7185 36.6101 36.7279L36.4684 36.9949C36.4684 36.9949 36.3267 36.9873 36.2052 36.9873C36.0838 36.9873 35.9661 36.943 35.9421 36.9746C35.918 37.0063 35.7763 37.1733 35.7472 37.2277C35.696 37.2972 35.6237 37.3482 35.541 37.3732C35.3818 37.4023 35.2207 37.42 35.059 37.4263C34.9045 37.4646 34.7528 37.5132 34.6048 37.5718C34.501 37.6637 34.405 37.764 34.3176 37.8717C34.1633 38.0245 33.9998 38.1677 33.828 38.3005C33.7875 38.3246 32.9487 38.8964 32.9487 38.8964C32.9487 38.8964 32.5919 39.3215 32.5198 39.3823C32.4477 39.443 32.3578 39.5164 32.3174 39.5518C32.1578 39.6946 32.0089 39.849 31.872 40.0136C31.8303 40.1622 31.8019 40.3142 31.7873 40.4678C31.7988 40.5488 31.7945 40.6313 31.7746 40.7107C31.7544 40.7676 31.5886 41.1193 31.6291 41.2092C31.6696 41.299 31.4672 41.5533 31.6089 41.6748C31.7506 41.7962 31.8277 41.9177 31.8923 41.9746C31.9568 42.0315 31.9163 42.4124 31.9125 42.4326C31.9087 42.4528 31.7025 42.5705 31.6822 42.6072C31.6415 42.6719 31.6116 42.7428 31.5937 42.8172C31.5937 42.8703 31.5456 43.4688 31.5456 43.4688C31.5456 43.4688 31.4773 43.6548 31.3837 43.6914C31.29 43.7281 31.0104 43.8901 31.0104 43.8901C30.9367 43.9535 30.8566 44.0091 30.7713 44.0558C30.6222 44.1267 30.4921 44.2321 30.3918 44.3632C29.9151 45.3662 29.3517 46.3254 28.7078 47.2301C28.405 47.5511 28.0341 47.8002 27.6223 47.9589C27.5818 47.9993 27.0871 48.7888 27.0871 48.7888C27.0871 48.7888 26.8442 49.1216 26.7999 49.2101L26.4596 49.8946C26.3103 50.1666 25.884 49.9996 25.7992 49.911C25.8359 49.1696 25.4753 49.1456 25.5462 49.0684C25.617 48.9912 26.3242 48.5219 26.2268 48.4573C26.1294 48.3928 25.8334 48.2587 25.8296 48.2043C25.8258 48.1499 23.7066 46.6089 23.7155 46.5684C23.8129 46.0016 23.6218 46.1104 23.6218 46.1104C23.6218 46.1104 23.3384 46.4546 23.322 46.4584C23.3055 46.4622 23.2081 46.5634 23.1803 46.5849C23.1525 46.6064 23.1638 46.6659 23.0829 46.6254C23.0321 46.6057 22.9854 46.577 22.945 46.5406C22.9247 46.5128 22.7995 46.2205 22.7868 46.1927C22.728 46.0717 22.663 45.9539 22.592 45.8397C22.5642 45.803 22.2479 45.5867 22.2479 45.5867C22.2479 45.5867 21.9847 45.5462 21.9607 45.5462C21.9366 45.5462 21.6279 45.5462 21.5811 45.5538C21.5343 45.5614 21.423 45.4273 21.4154 45.3007C21.3989 45.0945 21.7279 44.8187 21.7835 44.7251C22.2109 44.1578 22.6899 43.6313 23.2145 43.1525C23.3195 43.0753 24.0609 42.4604 24.2519 42.3023C24.491 42.0999 25.3905 41.4723 25.4627 41.3711C25.5225 41.1692 25.5502 40.9592 25.5449 40.7487L25.6714 40.1692L25.3589 39.6631L25.1603 39.5898C25.1198 39.5771 24.9174 39.5898 24.8124 39.4885C24.6858 39.362 24.739 39.0394 24.739 38.9698C24.8657 38.6191 25.0119 38.2757 25.1767 37.9412C25.2002 37.8721 25.2084 37.7987 25.2008 37.7262L25.1034 37.5769L24.8402 37.5693C24.8303 37.5876 24.8147 37.6022 24.7957 37.6108C24.7768 37.6195 24.7555 37.6218 24.7352 37.6174C24.6737 37.6002 24.614 37.5773 24.5568 37.549C24.5004 37.5433 24.4436 37.5433 24.3873 37.549C24.3442 37.5985 24.2938 37.6411 24.238 37.6755C24.2095 37.6926 24.1772 37.7022 24.1441 37.7035C24.1109 37.7048 24.078 37.6978 24.0482 37.6831C23.9508 37.6389 23.8938 37.6148 23.866 37.5566C23.7628 37.4557 23.6995 37.3209 23.6876 37.1771C23.675 36.9342 23.675 36.3674 23.675 36.3066C23.675 36.2459 23.6876 35.8727 23.6876 35.8727L23.513 35.4995L23.1929 35.4109C22.8777 35.4219 22.5637 35.4544 22.2529 35.5083C21.9952 35.4726 21.7412 35.4142 21.4938 35.3337L21.0649 35.4311C21.0649 35.4311 20.8865 35.4514 20.8461 35.3426C20.7804 35.2037 20.7512 35.0505 20.7613 34.8972C20.7269 34.5072 20.6728 34.1191 20.5993 33.7345C20.5867 33.5802 20.5348 32.9046 20.5348 32.9046C20.515 32.7803 20.5206 32.6534 20.5513 32.5314C20.6104 32.4545 20.6813 32.3875 20.7613 32.3327C20.8037 32.2746 20.8291 32.2058 20.8347 32.1341C20.8347 32.1063 20.7335 31.9481 20.7259 31.9152C20.6932 31.8497 20.6649 31.7821 20.6411 31.7128C20.6695 31.6457 20.7093 31.5841 20.7588 31.5306C20.8375 31.4427 20.8943 31.3373 20.9245 31.2232C20.9245 31.1586 20.8802 30.607 20.8802 30.607L21.0459 30.2503L21.0535 29.829L20.8752 29.3064C20.8752 29.3064 20.154 29.2255 20.0288 28.9699C19.9921 28.8927 19.8668 28.2108 19.8668 28.2108L19.6682 27.9274C19.6682 27.9274 18.818 27.9755 18.7282 27.9514C18.6383 27.9274 17.7881 27.9755 17.7881 27.8869C17.7661 27.7054 17.7139 27.5288 17.6338 27.3644C17.5381 27.1837 17.4646 26.9921 17.4149 26.7938C17.4149 26.7166 17.2732 26.3561 17.3263 26.251C17.3919 26.0014 17.4418 25.7478 17.4756 25.4919C17.4455 25.2275 17.3887 24.9669 17.3061 24.7139C17.0546 24.668 16.8059 24.6085 16.5609 24.5355C16.4964 24.5481 15.9701 24.5481 15.8929 24.4583C15.8157 24.3685 15.3868 24.0496 15.3868 24.0496C15.3868 24.0496 14.796 23.9725 14.7302 23.9484C14.6644 23.9244 14.2153 23.6081 14.1634 23.5752C14.1115 23.5423 13.7383 23.5626 13.6738 23.4904C13.6093 23.4183 13.3335 23.1375 13.2563 23.1375C13.1791 23.1375 12.9489 23.2918 12.7414 23.202C12.53 23.1228 12.334 23.0077 12.1619 22.8617C12.105 22.7731 11.8899 22.534 11.8545 22.4644C11.7908 22.3713 11.716 22.2864 11.6318 22.2114C11.5875 22.1747 11.2788 21.8989 11.2788 21.8989L11.1764 21.3915H9.38613L9.37348 21.3763ZM15.6639 19.6797H11.3623L11.3218 19.6962H1.63316V20.8703H3.7713C4.0282 21.19 4.39228 21.4058 4.79609 21.4776C5.71102 21.6457 6.65128 21.6168 7.55417 21.3928L7.59086 21.3852C8.39677 21.2233 9.1913 21.0613 9.96811 20.8703H15.55C15.6475 20.955 15.7398 21.0398 15.8297 21.1233C15.8297 21.1233 15.8701 21.1676 15.903 21.1967C16.6183 21.9538 17.4632 22.5768 18.3979 23.0362H18.4055C18.5877 23.1134 18.7661 23.1855 18.9521 23.2513C19.5849 23.4583 20.2381 23.597 20.9005 23.665C21.7312 23.7443 22.5683 23.7281 23.3954 23.617C25.3179 23.3355 27.1732 22.707 28.871 21.7622C29.41 21.47 29.949 21.1714 30.4829 20.8766H34.477V19.7025H32.4945L32.5223 19.6861H30.498L30.4652 19.7025H15.7006L15.6728 19.6861L15.6639 19.6797ZM36.6215 21.4371C36.6246 21.4267 36.631 21.4176 36.6396 21.411C36.6482 21.4044 36.6587 21.4007 36.6695 21.4004C36.6804 21.4005 36.691 21.4041 36.6997 21.4108C36.7083 21.4174 36.7146 21.4266 36.7176 21.4371L36.8922 21.9596C36.9028 21.9936 36.9241 22.0234 36.9529 22.0444C36.9825 22.0654 37.0178 22.0769 37.0542 22.0772L37.5969 22.0848C37.6076 22.0858 37.6177 22.0898 37.6262 22.0963C37.6347 22.1028 37.6412 22.1115 37.645 22.1215C37.6477 22.1316 37.6477 22.1423 37.6448 22.1523C37.6419 22.1623 37.6363 22.1714 37.6285 22.1785L37.1946 22.5061C37.1644 22.5274 37.1429 22.5589 37.1339 22.5947C37.1218 22.63 37.1218 22.6682 37.1339 22.7035L37.2958 23.2298C37.2997 23.2402 37.2998 23.2516 37.2961 23.262C37.2924 23.2724 37.2851 23.2812 37.2756 23.2868C37.2673 23.2928 37.2573 23.2961 37.2471 23.2961C37.2369 23.2961 37.2269 23.2928 37.2186 23.2868L36.7771 22.9667C36.7475 22.9456 36.7122 22.9343 36.6759 22.9343C36.6396 22.9343 36.6042 22.9456 36.5747 22.9667L36.1331 23.2868C36.1249 23.2928 36.1149 23.2961 36.1046 23.2961C36.0944 23.2961 36.0844 23.2928 36.0762 23.2868C36.068 23.2799 36.0619 23.2711 36.0583 23.261C36.0547 23.251 36.0539 23.2403 36.0559 23.2298L36.2179 22.7035C36.2299 22.6682 36.2299 22.63 36.2179 22.5947C36.2063 22.5601 36.1853 22.5294 36.1572 22.5061L35.7232 22.1785C35.7148 22.1719 35.7087 22.1629 35.7058 22.1527C35.7028 22.1424 35.7032 22.1315 35.7068 22.1215C35.7099 22.1112 35.7163 22.102 35.7249 22.0955C35.7335 22.0889 35.744 22.0852 35.7548 22.0848L36.2976 22.0772C36.3339 22.0769 36.3692 22.0654 36.3988 22.0444C36.428 22.0237 36.4494 21.9939 36.4595 21.9596L36.6341 21.4371H36.6215ZM28.0259 20.8703L27.8437 20.955L27.8602 20.9474L27.8361 20.955C25.5237 22.0552 22.9308 22.4242 20.4032 22.0127C20.2135 21.9722 20.0237 21.9242 19.8364 21.8672C19.6492 21.8103 19.4569 21.7407 19.4569 21.7407C19.4 21.7205 19.343 21.704 19.2823 21.6838C19.1444 21.6357 18.9863 21.575 18.9863 21.575C18.5089 21.406 18.0478 21.1943 17.6085 20.9424L17.482 20.869H28.0259V20.8703ZM7.40361 20.8703C6.64736 21.0864 5.85864 21.1661 5.07443 21.1056C4.79514 21.0909 4.5233 21.0102 4.28117 20.8703H7.40361ZM41.1837 18.2615C41.1876 18.2516 41.1944 18.2432 41.2032 18.2373C41.212 18.2314 41.2224 18.2284 41.233 18.2286C41.2439 18.2287 41.2545 18.2324 41.2631 18.239C41.2718 18.2456 41.2781 18.2548 41.2811 18.2653L41.4557 18.7878C41.4663 18.8219 41.4876 18.8516 41.5164 18.8726C41.546 18.8936 41.5813 18.9051 41.6176 18.9055L42.1604 18.9131C42.1707 18.9136 42.1806 18.9174 42.1886 18.924C42.1966 18.9307 42.2022 18.9397 42.2047 18.9497C42.2083 18.9598 42.2086 18.9706 42.2057 18.9809C42.2027 18.9911 42.1966 19.0001 42.1882 19.0067L41.7543 19.3344C41.7241 19.3557 41.7025 19.3871 41.6935 19.4229C41.6815 19.4582 41.6815 19.4965 41.6935 19.5317L41.8555 20.058C41.8591 20.068 41.8594 20.0789 41.8565 20.0892C41.8535 20.0994 41.8474 20.1084 41.839 20.115C41.8308 20.121 41.8208 20.1243 41.8106 20.1243C41.8003 20.1243 41.7904 20.121 41.7821 20.115L41.3406 19.7949C41.311 19.7738 41.2756 19.7625 41.2393 19.7625C41.2031 19.7625 41.1677 19.7738 41.1381 19.7949L40.6966 20.115C40.6883 20.121 40.6784 20.1243 40.6681 20.1243C40.6579 20.1243 40.6479 20.121 40.6397 20.115C40.6315 20.1082 40.6253 20.0993 40.6218 20.0893C40.6182 20.0793 40.6174 20.0685 40.6194 20.058L40.7814 19.5317C40.7934 19.4965 40.7934 19.4582 40.7814 19.4229C40.7698 19.3883 40.7488 19.3576 40.7206 19.3344L40.2867 19.0067C40.2783 19.0001 40.2722 18.9911 40.2692 18.9809C40.2663 18.9706 40.2666 18.9598 40.2702 18.9497C40.2734 18.9394 40.2797 18.9302 40.2884 18.9237C40.297 18.9171 40.3075 18.9134 40.3183 18.9131L40.8611 18.9055C40.8974 18.9051 40.9327 18.8936 40.9623 18.8726C40.9914 18.8519 41.0128 18.8221 41.023 18.7878L41.1976 18.2653L41.1837 18.2615ZM1.63316 19.5773H34.4669V18.4816H1.63316V19.5773ZM36.5038 14.9278H35.9282C35.9079 14.9278 35.9003 14.9354 35.9003 14.9556V14.9999C35.9003 15.0163 35.9003 15.0201 35.9206 15.0277C35.9206 15.0277 35.9686 15.0555 35.9737 15.0922C35.9813 15.611 35.9737 16.1297 35.9737 16.6471C34.981 17.2426 33.9777 17.8178 32.9639 18.3728H34.4745H34.5074C34.5254 18.3804 34.5409 18.3932 34.5517 18.4095C35.3377 17.9034 36.1167 17.3877 36.8884 16.8622L36.8606 16.7939H36.8732H36.8808L37.4071 15.6552V15.9791L37.0428 16.7648C37.1516 16.6876 37.2616 16.6104 37.3755 16.5383L37.4122 16.5143V16.6598C37.4122 16.7572 37.3477 16.7079 37.3439 16.7572V16.8015C37.3439 16.8217 37.3515 16.8293 37.3717 16.8293H37.8373C37.8575 16.8293 37.8651 16.8217 37.8651 16.8015V16.7572C37.8656 16.7519 37.8643 16.7466 37.8613 16.7422C37.8583 16.7378 37.8538 16.7346 37.8487 16.7332C37.8487 16.7332 37.7956 16.7091 37.7918 16.6648C37.7918 16.5269 37.7918 16.389 37.7918 16.2473V16.2043V16.16V15.5275C37.7918 15.382 37.7918 15.2403 37.7918 15.0935C37.7918 15.0049 37.8563 15.0492 37.8601 14.9999V14.9518C37.8601 14.9354 37.8601 14.9316 37.8398 14.924H37.2642C37.2439 14.924 37.2363 14.9316 37.2363 14.9518V14.9961C37.2363 15.0125 37.2363 15.0163 37.2566 15.0239C37.2768 15.0315 37.2933 15.0366 37.2895 15.0682V15.0758C37.2895 15.0758 37.2895 15.0758 37.2895 15.0834C37.2895 15.091 37.2895 15.091 37.2895 15.096C37.2895 15.1011 37.2895 15.1087 37.2895 15.1125C37.2895 15.1163 37.2895 15.1251 37.2819 15.1327C37.1554 15.4199 37.0289 15.7033 36.8935 15.988L36.5139 15.1175C36.4659 14.9999 36.5506 15.0442 36.5544 14.991V14.9518C36.5544 14.9316 36.5468 14.924 36.5266 14.924L36.5038 14.9278ZM45.107 16.9128H45.1437C45.2071 16.91 45.269 16.9322 45.3163 16.9745C45.3636 17.0168 45.3925 17.076 45.3967 17.1393C45.3891 17.3215 45.1437 17.4113 44.9273 17.3291C44.9109 17.3215 44.8944 17.3126 44.9033 17.2886L44.9273 17.2316C44.94 17.2076 44.9476 17.2114 44.9754 17.219C45.064 17.243 45.1943 17.219 45.1576 17.1342C45.1449 17.1013 45.0931 17.1013 45.069 17.1342C45.0633 17.139 45.0562 17.1415 45.0488 17.1415C45.0414 17.1415 45.0342 17.139 45.0285 17.1342L45.0007 17.1102C44.9843 17.0975 44.9843 17.0937 44.9931 17.0735C45.026 16.9963 45.0374 16.904 45.1196 16.904L45.107 16.9128ZM36.4469 16.9735H36.0053C35.9813 16.9735 35.9775 16.966 35.9775 16.9457V16.9002C35.9775 16.8559 36.0306 16.8875 36.042 16.8318H36.3621C36.3824 16.8318 36.3899 16.8318 36.3899 16.8078V16.7547C36.3899 16.742 36.3899 16.7382 36.3735 16.7306C36.3571 16.723 36.3204 16.7104 36.3204 16.6699V16.4346C36.3204 16.1815 36.3204 15.9197 36.3204 15.6654L36.5873 16.2726C36.5266 16.3093 36.4608 16.3498 36.4013 16.3865C36.4013 16.5282 36.4013 16.6661 36.4013 16.8078V16.8154C36.4013 16.8559 36.4545 16.8761 36.4545 16.8761C36.4545 16.8761 36.4709 16.8926 36.4709 16.9002V16.9444C36.4709 16.9685 36.4633 16.9723 36.4431 16.9723L36.4469 16.9735ZM18.6295 14.8911H18.5865C18.57 14.8911 18.5662 14.8911 18.5586 14.9113C18.5586 14.9113 18.546 14.9758 18.5105 14.9796C18.0652 14.9923 17.6249 14.9796 17.1733 14.9796C17.153 14.9796 17.1454 14.9872 17.1454 15.0075V15.048C17.1454 15.0606 17.1454 15.0644 17.1619 15.072C17.1783 15.0796 17.215 15.096 17.215 15.1365C17.2226 15.6426 17.215 16.1613 17.215 16.6762C17.215 16.7699 17.1505 16.7205 17.1467 16.7699V16.8103C17.1467 16.8306 17.1467 16.8344 17.1707 16.8382H18.5359C18.6042 16.8382 18.5599 16.9191 18.613 16.9229H18.6497C18.67 16.9229 18.6776 16.9229 18.6776 16.8951V16.4257C18.6776 16.4055 18.67 16.3979 18.6497 16.3979H18.613C18.5966 16.3979 18.5928 16.3979 18.5852 16.4181C18.5852 16.4181 18.5687 16.4827 18.5371 16.4827C18.2246 16.4902 17.9134 16.4827 17.6009 16.4827V16.0449H18.1765C18.2499 16.0449 18.2006 16.1259 18.2575 16.1297H18.2942C18.3144 16.1297 18.322 16.1221 18.322 16.1018V15.6438C18.322 15.6274 18.322 15.6236 18.3018 15.616H18.2575C18.2411 15.616 18.2373 15.616 18.2297 15.6363C18.2297 15.6363 18.2132 15.7008 18.1816 15.7008C17.9868 15.7008 17.7932 15.7008 17.6022 15.7008V15.3276H18.5093C18.5776 15.3276 18.5333 15.4085 18.5865 15.4123H18.6231C18.6434 15.4123 18.651 15.4123 18.651 15.3845V14.9151C18.651 14.8949 18.6434 14.8873 18.6231 14.8873L18.6295 14.8911ZM26.5153 15.8273C26.5355 15.8349 26.5355 15.84 26.5355 15.8551V16.2284C26.5355 16.2815 26.4786 16.2562 26.4786 16.2562C26.4305 16.2562 26.4659 16.1879 26.4141 16.1879H25.9396V16.532C26.1927 16.532 26.4546 16.5396 26.7089 16.532C26.7329 16.532 26.7455 16.4839 26.7455 16.4839C26.7455 16.4839 26.7582 16.4675 26.7734 16.4637H26.8012C26.8253 16.4637 26.829 16.4713 26.829 16.4915V16.8711C26.829 16.9242 26.7721 16.8989 26.7721 16.8989C26.7152 16.8989 26.7721 16.8306 26.7076 16.8306H25.5689C25.5487 16.8306 25.5449 16.823 25.5449 16.8027V16.7699C25.5449 16.7167 25.6018 16.7699 25.6018 16.6927C25.6018 16.2752 25.6018 15.8581 25.6018 15.4414C25.6018 15.4136 25.5613 15.3933 25.5613 15.3933C25.5613 15.3933 25.5449 15.3807 25.5449 15.3693V15.3364C25.5449 15.3124 25.5525 15.3086 25.5727 15.3086C25.9409 15.3086 26.3103 15.3162 26.6823 15.3086C26.7101 15.3086 26.719 15.2554 26.719 15.2554C26.719 15.2554 26.7316 15.239 26.7468 15.2352H26.7746C26.7987 15.2352 26.8025 15.2428 26.8025 15.263V15.6426C26.8025 15.6957 26.7455 15.6704 26.7455 15.6704C26.7013 15.6704 26.738 15.6059 26.681 15.6021H25.932V15.8944C26.0902 15.8944 26.2483 15.8944 26.4103 15.8944C26.4432 15.8944 26.447 15.8463 26.447 15.8463C26.447 15.8463 26.4596 15.8298 26.4748 15.826H26.5115L26.5153 15.8273ZM34.7617 15.8273C34.7819 15.8349 34.7819 15.84 34.7819 15.8551V16.2284C34.7819 16.2815 34.725 16.2562 34.725 16.2562C34.6769 16.2562 34.7123 16.1879 34.6605 16.1879H34.186V16.532C34.4391 16.532 34.7009 16.5396 34.9552 16.532C34.9831 16.532 34.9919 16.4839 34.9919 16.4839C34.9919 16.4839 35.0046 16.4675 35.0198 16.4637H35.0476C35.0716 16.4637 35.0754 16.4713 35.0754 16.4915V16.8711C35.0754 16.9242 35.0185 16.8989 35.0185 16.8989C34.9616 16.8989 35.0109 16.8306 34.954 16.8306H33.8242C33.8039 16.8306 33.8001 16.823 33.8001 16.8027V16.7699C33.8001 16.7167 33.8571 16.7699 33.8571 16.6927C33.8655 16.2752 33.8655 15.8581 33.8571 15.4414C33.8571 15.4136 33.8166 15.3933 33.8166 15.3933C33.8166 15.3933 33.8001 15.3807 33.8001 15.3693V15.3364C33.8001 15.3124 33.8077 15.3086 33.828 15.3086C34.1961 15.3086 34.5656 15.3162 34.9337 15.3086C34.9616 15.3086 34.9704 15.2554 34.9704 15.2554C34.9704 15.2554 34.9831 15.239 34.9983 15.2352H35.0337C35.0577 15.2352 35.0615 15.2428 35.0615 15.263V15.6426C35.0615 15.6957 35.0046 15.6704 35.0046 15.6704C34.9603 15.6704 34.9919 15.6059 34.9401 15.6021H34.1911V15.8944C34.3492 15.8944 34.5112 15.8944 34.6693 15.8944C34.7022 15.8944 34.706 15.8463 34.706 15.8463C34.706 15.8463 34.7187 15.8298 34.7338 15.826H34.7705L34.7617 15.8273ZM45.694 16.2967C45.7002 16.2998 45.7058 16.3041 45.7105 16.3093L45.8851 16.6168C45.8926 16.637 45.8926 16.6408 45.8775 16.6535L45.8534 16.6737C45.8129 16.7015 45.7927 16.6535 45.7927 16.6535C45.6788 16.6977 45.5776 16.799 45.4486 16.8483C45.343 16.8839 45.231 16.8963 45.1202 16.8848C45.0094 16.8733 44.9024 16.8381 44.8064 16.7816C44.7104 16.725 44.6276 16.6485 44.5638 16.5572C44.5 16.4659 44.4565 16.362 44.4364 16.2524C44.3962 16.0658 44.4239 15.871 44.5146 15.7031C44.6053 15.5351 44.753 15.4051 44.9311 15.3364C45.0675 15.3009 45.2101 15.2967 45.3484 15.3241C45.4866 15.3515 45.6169 15.4097 45.7294 15.4946L45.7497 15.5072C45.7737 15.5237 45.7826 15.5477 45.8142 15.5148C45.8199 15.5101 45.8271 15.5075 45.8344 15.5075C45.8418 15.5075 45.849 15.5101 45.8547 15.5148L45.8787 15.535C45.8952 15.5515 45.8952 15.5553 45.8863 15.5717L45.7117 15.8792C45.6839 15.9235 45.6434 15.8665 45.6434 15.8665C45.6194 15.8463 45.6434 15.8387 45.6308 15.802C45.6067 15.7046 45.4562 15.6476 45.3271 15.6236C45.2151 15.5986 45.0979 15.6152 44.9973 15.6704C44.8967 15.7256 44.8196 15.8156 44.7806 15.9235C44.7371 16.0427 44.7401 16.1739 44.7888 16.2911C44.8375 16.4082 44.9285 16.5028 45.0437 16.556C45.1398 16.5862 45.2422 16.5903 45.3404 16.5681C45.4386 16.5459 45.5292 16.4981 45.6029 16.4295C45.6216 16.4053 45.6314 16.3754 45.6308 16.3448C45.6308 16.3405 45.632 16.3364 45.6342 16.3328C45.6365 16.3293 45.6396 16.3264 45.6434 16.3245C45.6434 16.3245 45.6674 16.2916 45.6965 16.2967H45.694ZM12.6503 16.2726C12.6579 16.2753 12.6648 16.2796 12.6705 16.2853L12.8451 16.5927C12.8527 16.613 12.8527 16.6168 12.8375 16.6294L12.8135 16.6497C12.773 16.6775 12.7528 16.6294 12.7528 16.6294C12.6389 16.6737 12.5427 16.7749 12.4124 16.8192C12.3168 16.8546 12.215 16.8703 12.1131 16.8655C12.0112 16.8606 11.9114 16.8353 11.8195 16.791C11.7276 16.7468 11.6456 16.6844 11.5784 16.6077C11.5111 16.5311 11.46 16.4416 11.4281 16.3448C11.3557 16.1459 11.3639 15.9267 11.4509 15.7338C11.5378 15.541 11.6968 15.3897 11.8937 15.3124C12.0301 15.277 12.1727 15.2729 12.3109 15.3003C12.4491 15.3277 12.5794 15.3859 12.692 15.4705L12.7123 15.4832C12.7363 15.4996 12.749 15.5199 12.7768 15.4908C12.7825 15.486 12.7896 15.4834 12.797 15.4834C12.8044 15.4834 12.8116 15.486 12.8173 15.4908L12.8413 15.511C12.8578 15.5275 12.8578 15.5312 12.8489 15.5477L12.6743 15.8551C12.6541 15.888 12.606 15.8425 12.606 15.8425C12.582 15.8222 12.606 15.8146 12.5933 15.778C12.5655 15.6767 12.415 15.6236 12.2897 15.5996C12.1777 15.5737 12.0601 15.59 11.9593 15.6453C11.8585 15.7006 11.7815 15.791 11.7431 15.8994C11.6997 16.0186 11.7027 16.1498 11.7514 16.267C11.8001 16.3842 11.8911 16.4788 12.0063 16.532C12.1018 16.5615 12.2035 16.5654 12.301 16.5432C12.3985 16.521 12.4884 16.4735 12.5617 16.4055C12.5804 16.3812 12.5902 16.3513 12.5895 16.3207C12.592 16.3115 12.5966 16.3031 12.603 16.296C12.6094 16.289 12.6173 16.2836 12.6262 16.2802C12.6304 16.2775 12.6352 16.2761 12.6402 16.2761C12.6451 16.2761 12.6499 16.2775 12.6541 16.2802L12.6503 16.2726ZM21.7228 16.2726C21.7304 16.2753 21.7373 16.2796 21.7431 16.2853L21.9177 16.5927C21.9252 16.613 21.9252 16.6168 21.9101 16.6294L21.886 16.6497C21.8455 16.6775 21.8253 16.6294 21.8253 16.6294C21.7114 16.6737 21.6153 16.7749 21.485 16.8192C21.3886 16.855 21.286 16.8709 21.1833 16.8659C21.0806 16.8608 20.98 16.835 20.8876 16.7899C20.7952 16.7448 20.7129 16.6815 20.6458 16.6036C20.5786 16.5258 20.5279 16.4352 20.4969 16.3372C20.4274 16.1393 20.4371 15.9222 20.5238 15.7312C20.6106 15.5403 20.7677 15.3902 20.9624 15.3124C21.0988 15.277 21.2415 15.2729 21.3797 15.3003C21.5179 15.3277 21.6481 15.3859 21.7608 15.4705L21.781 15.4832C21.8051 15.4996 21.8215 15.5199 21.8455 15.4908C21.8512 15.486 21.8584 15.4834 21.8658 15.4834C21.8732 15.4834 21.8803 15.486 21.886 15.4908L21.9101 15.511C21.9265 15.5275 21.9265 15.5312 21.9177 15.5477L21.7431 15.8551C21.7228 15.888 21.6747 15.8425 21.6747 15.8425C21.6545 15.8222 21.6747 15.8298 21.6621 15.778C21.6343 15.6767 21.4837 15.6236 21.3547 15.5996C21.2431 15.5739 21.1261 15.5909 21.0264 15.647C20.9267 15.7032 20.8516 15.7946 20.8157 15.9032C20.7723 16.0224 20.7752 16.1536 20.8239 16.2708C20.8727 16.388 20.9637 16.4825 21.0788 16.5358C21.1749 16.5659 21.2773 16.5701 21.3755 16.5479C21.4737 16.5257 21.5643 16.4778 21.638 16.4093C21.6565 16.3863 21.6663 16.3577 21.6659 16.3283C21.6683 16.3191 21.6729 16.3106 21.6793 16.3036C21.6857 16.2966 21.6937 16.2911 21.7026 16.2878C21.7152 16.2802 21.719 16.2802 21.7266 16.2878L21.7228 16.2726ZM22.7957 15.2807C22.9411 15.2818 23.083 15.3254 23.2039 15.4061C23.3249 15.4868 23.4196 15.6011 23.4763 15.7349C23.5586 15.9253 23.5676 16.1393 23.5018 16.3359C23.436 16.5324 23.2998 16.6978 23.1196 16.8002C22.9682 16.8699 22.7981 16.8878 22.6355 16.8512C22.473 16.8146 22.327 16.7256 22.22 16.5978C22.1502 16.5049 22.0999 16.3987 22.0722 16.2858C22.0445 16.1729 22.04 16.0556 22.0589 15.9409C22.0779 15.8262 22.1198 15.7165 22.1823 15.6185C22.2448 15.5205 22.3265 15.4361 22.4225 15.3706C22.5339 15.3129 22.6575 15.2825 22.783 15.282H22.7957V15.2807ZM38.1043 15.3048C38.1005 15.3044 38.0967 15.3048 38.0931 15.3061C38.0896 15.3073 38.0864 15.3094 38.0837 15.3121C38.081 15.3147 38.079 15.318 38.0777 15.3215C38.0765 15.3251 38.076 15.3289 38.0764 15.3326V15.3453C38.0119 15.3896 37.9423 15.43 37.8778 15.4718C37.8778 15.7109 37.8778 15.95 37.8778 16.1891L38.1308 16.007V16.279C38.1295 16.3483 38.1363 16.4175 38.1511 16.4852C38.1837 16.5995 38.2547 16.6991 38.3522 16.7671C38.4497 16.8351 38.5677 16.8673 38.6862 16.8584C38.8895 16.8911 39.0975 16.843 39.2657 16.7243C39.3157 16.6747 39.3551 16.6155 39.3816 16.5503C39.4081 16.4851 39.4212 16.4152 39.42 16.3448C39.4365 16.0487 39.42 15.7451 39.42 15.4452C39.42 15.3718 39.477 15.425 39.477 15.368V15.3351C39.477 15.3149 39.477 15.3149 39.4567 15.3073H39.1126C40.3476 14.4056 41.5358 13.4415 42.6728 12.4189L42.7867 12.3177L42.774 11.8597C42.7297 11.8964 42.4742 12.1393 42.4299 12.176C41.0617 13.3026 39.6297 14.3494 38.1409 15.3111H38.1043V15.3048ZM15.7006 15.2807C15.8823 15.3022 16.0589 15.3544 16.2231 15.4351C16.2396 15.4427 16.2636 15.4186 16.2636 15.4186C16.2636 15.4186 16.2838 15.4111 16.2965 15.4186L16.3205 15.4351C16.337 15.4477 16.3408 15.4515 16.3332 15.4718L16.1839 15.8159C16.1675 15.8488 16.1156 15.8159 16.1156 15.8159C16.0953 15.7995 16.1156 15.783 16.0953 15.7514C16.0277 15.6786 15.9406 15.6269 15.8443 15.6024C15.748 15.578 15.6467 15.5818 15.5526 15.6135C15.5247 15.6211 15.4033 15.7071 15.4552 15.7919C15.4919 15.8526 15.5817 15.8488 15.674 15.8602C15.8682 15.8544 16.059 15.9126 16.2168 16.0259C16.2603 16.0757 16.2935 16.1337 16.3144 16.1964C16.3353 16.2591 16.3435 16.3254 16.3386 16.3913C16.3337 16.4572 16.3156 16.5215 16.2856 16.5804C16.2556 16.6394 16.2141 16.6917 16.1637 16.7344C16.0222 16.8184 15.8602 16.8614 15.6957 16.8585C15.5313 16.8556 15.3709 16.8069 15.2325 16.718C15.2085 16.7053 15.1958 16.6851 15.168 16.7104C15.1623 16.7134 15.156 16.7149 15.1496 16.7149C15.1432 16.7149 15.1369 16.7134 15.1313 16.7104L15.1072 16.6939C15.0908 16.6813 15.0908 16.6775 15.0946 16.6573L15.2287 16.2967C15.2451 16.2638 15.297 16.2967 15.297 16.2967C15.3337 16.3207 15.297 16.3574 15.3451 16.4055C15.4231 16.4841 15.5247 16.535 15.6344 16.5503C15.7441 16.5656 15.8558 16.5445 15.9524 16.4902C16.0333 16.4295 16.0574 16.3043 15.9245 16.2714C15.8828 16.2623 15.8405 16.2555 15.798 16.2511C15.5716 16.2233 15.3084 16.2271 15.1907 15.9981C15.137 15.8923 15.1221 15.771 15.1487 15.6554C15.1753 15.5398 15.2417 15.4372 15.3362 15.3655C15.4466 15.2972 15.5747 15.2633 15.7044 15.2681L15.7006 15.2807ZM5.82088 16.8597C5.87091 16.8596 5.92085 16.8554 5.97017 16.847C6.05299 16.8291 6.13074 16.7929 6.19774 16.741C6.26474 16.6891 6.31928 16.6229 6.35737 16.5472C6.39546 16.4715 6.41613 16.3882 6.41787 16.3035C6.41962 16.2188 6.40238 16.1348 6.36743 16.0576C6.32414 15.9728 6.26178 15.8991 6.18525 15.8425C6.27041 15.7658 6.32885 15.664 6.35207 15.5518C6.37528 15.4396 6.36205 15.3229 6.3143 15.2188C6.27052 15.1237 6.19834 15.0445 6.10771 14.9922C6.01708 14.9399 5.91245 14.9169 5.80823 14.9265H4.79609C4.77585 14.9265 4.76826 14.9265 4.76826 14.9543V14.9986C4.76776 15.0039 4.76913 15.0092 4.77214 15.0136C4.77514 15.018 4.77959 15.0212 4.78471 15.0227C4.78471 15.0227 4.83784 15.0467 4.84164 15.091C4.84923 15.6211 4.84164 16.1487 4.84164 16.6788C4.84164 16.7762 4.77711 16.723 4.77332 16.7762V16.8205C4.77332 16.8407 4.77332 16.8483 4.80115 16.8483H5.82215L5.82088 16.8597ZM19.2962 15.2795H18.8749C18.8547 15.2795 18.8471 15.2871 18.8471 15.3073V15.344C18.8471 15.3605 18.8471 15.3642 18.8673 15.3718C18.8876 15.3794 18.904 15.3921 18.9078 15.4199C18.9154 15.8539 18.9078 16.2828 18.9078 16.7155C18.9078 16.7926 18.8509 16.7433 18.8509 16.7964V16.8369C18.8509 16.8571 18.8585 16.8647 18.8787 16.8647H19.2431C19.2633 16.8647 19.2709 16.8571 19.2709 16.8369V16.799C19.2709 16.7825 19.2709 16.7825 19.2545 16.7749C19.2433 16.7704 19.2334 16.7632 19.2257 16.7539C19.218 16.7446 19.2126 16.7336 19.2102 16.7218C19.2102 16.4384 19.2102 16.1588 19.2102 15.8754L19.858 16.6939C19.9427 16.8078 19.858 16.7471 19.858 16.799V16.8369C19.858 16.8571 19.8655 16.8647 19.8858 16.8647H20.2742C20.2944 16.8647 20.302 16.8571 20.302 16.8369V16.799C20.302 16.7825 20.302 16.7825 20.2856 16.7749C20.2691 16.7673 20.2451 16.7547 20.2451 16.7218C20.2375 16.2878 20.2451 15.8589 20.2451 15.4262C20.2451 15.3491 20.2982 15.3984 20.302 15.3491V15.3124C20.302 15.2921 20.2944 15.2845 20.2742 15.2845H19.9098C19.8896 15.2845 19.882 15.2921 19.882 15.3124V15.3491C19.882 15.3655 19.882 15.3655 19.8984 15.3731C19.9149 15.3807 19.9389 15.3933 19.9389 15.4262C19.9389 15.702 19.9389 15.9728 19.9389 16.2486L19.3063 15.4427C19.2956 15.4301 19.2886 15.4147 19.2861 15.3984C19.2861 15.3706 19.3228 15.3908 19.3266 15.3503V15.3136C19.3266 15.2934 19.3266 15.2896 19.3025 15.2858L19.2962 15.2795ZM32.4198 15.2795C32.6012 15.2965 32.7774 15.3489 32.9386 15.4338C32.9588 15.4414 32.9828 15.4212 32.9828 15.4212C32.9828 15.4212 33.0031 15.4136 33.0157 15.4212L33.0398 15.4376C33.0562 15.4503 33.0562 15.4541 33.0524 15.4743L32.9031 15.8184C32.8867 15.8513 32.8348 15.8184 32.8348 15.8184C32.807 15.7982 32.8753 15.7906 32.7614 15.7046C32.6922 15.6511 32.611 15.6152 32.5249 15.5998C32.4388 15.5843 32.3503 15.5899 32.2668 15.616C32.1617 15.6527 32.0884 15.8146 32.2668 15.8463C32.4884 15.8459 32.7064 15.903 32.8993 16.012C32.9582 16.0719 33.0008 16.1458 33.0231 16.2268C33.0454 16.3078 33.0466 16.3931 33.0267 16.4747C33.0068 16.5563 32.9665 16.6314 32.9094 16.693C32.8524 16.7546 32.7805 16.8007 32.7007 16.8268C32.5688 16.8617 32.4313 16.8697 32.2962 16.8501C32.1612 16.8305 32.0316 16.7839 31.915 16.7129C31.8341 16.6724 31.8948 16.7496 31.8341 16.7129L31.8062 16.6965C31.7898 16.6838 31.7898 16.68 31.7936 16.6598L31.9277 16.2992C31.9441 16.2663 31.996 16.2992 31.996 16.2992C32.02 16.3157 32.0036 16.3321 32.0125 16.3599C32.0365 16.4536 32.1504 16.4865 32.2478 16.5219C32.3122 16.5487 32.382 16.5602 32.4516 16.5553C32.5212 16.5505 32.5887 16.5295 32.6488 16.494C32.726 16.4333 32.75 16.3081 32.621 16.2752C32.5792 16.2661 32.537 16.2593 32.4945 16.2549C32.2718 16.2271 32.0251 16.2347 31.8986 16.0285C31.8573 15.9514 31.8366 15.865 31.8387 15.7776C31.8407 15.6902 31.8653 15.6048 31.9102 15.5297C31.955 15.4547 32.0186 15.3925 32.0946 15.3493C32.1706 15.3062 32.2565 15.2834 32.3439 15.2833H32.4047L32.4198 15.2795ZM48.1889 15.2795C48.3703 15.2965 48.5465 15.3489 48.7077 15.4338C48.7279 15.4414 48.7481 15.4212 48.7481 15.4212C48.7481 15.4212 48.7684 15.4136 48.781 15.4212L48.8051 15.4376C48.8215 15.4503 48.8215 15.4541 48.8177 15.4743L48.6684 15.8184C48.652 15.8513 48.6001 15.8184 48.6001 15.8184C48.5799 15.802 48.6001 15.7855 48.5799 15.7539C48.5123 15.6811 48.4251 15.6294 48.3288 15.605C48.2325 15.5805 48.1313 15.5843 48.0371 15.616C47.9359 15.6527 47.8587 15.8146 48.0371 15.8463C48.2589 15.8451 48.477 15.9023 48.6697 16.012C48.7279 16.0722 48.7699 16.1462 48.7918 16.227C48.8137 16.3078 48.8147 16.3928 48.7949 16.4741C48.7751 16.5555 48.735 16.6305 48.6784 16.6921C48.6217 16.7538 48.5504 16.8001 48.4711 16.8268C48.3392 16.8617 48.2016 16.8697 48.0666 16.8501C47.9316 16.8305 47.8019 16.7839 47.6854 16.7129C47.6044 16.6724 47.6652 16.7496 47.6044 16.7129L47.5804 16.6965C47.5639 16.6838 47.5639 16.68 47.5677 16.6598L47.7018 16.2992C47.7183 16.2663 47.7702 16.2992 47.7702 16.2992C47.7942 16.3157 47.7778 16.3321 47.7866 16.3599C47.8106 16.4536 47.9245 16.4865 48.0219 16.5219C48.1763 16.57 48.3787 16.5826 48.4673 16.4447C48.479 16.4298 48.4864 16.4121 48.4889 16.3933C48.4913 16.3745 48.4886 16.3554 48.4811 16.3381C48.4736 16.3207 48.4615 16.3057 48.4462 16.2946C48.4308 16.2835 48.4127 16.2768 48.3939 16.2752C48.3521 16.2661 48.3099 16.2593 48.2674 16.2549C48.0447 16.2271 47.798 16.2347 47.6715 16.0285C47.6097 15.9224 47.5892 15.7973 47.6139 15.677C47.6387 15.5568 47.7069 15.4499 47.8056 15.3769C47.9117 15.3117 48.0341 15.278 48.1586 15.2795H48.1915H48.1889ZM27.4907 15.3035H27.0694C27.0289 15.3035 27.0416 15.368 27.0416 15.368C27.0416 15.368 27.0416 15.3883 27.0618 15.3959C27.0821 15.4035 27.0985 15.4161 27.0985 15.4402C27.107 15.8577 27.107 16.2747 27.0985 16.6914C27.0985 16.7648 27.0454 16.7155 27.0416 16.7686C27.0416 16.7686 27.034 16.8293 27.0694 16.8331H27.4338C27.4376 16.8335 27.4413 16.8331 27.4449 16.8318C27.4485 16.8305 27.4517 16.8285 27.4544 16.8258C27.457 16.8232 27.4591 16.8199 27.4603 16.8164C27.4616 16.8128 27.462 16.809 27.4616 16.8053V16.7724C27.4616 16.7559 27.4616 16.7521 27.4414 16.7445C27.4211 16.737 27.4047 16.7243 27.4047 16.6965C27.4047 16.4245 27.4047 16.1537 27.4047 15.8817L28.0487 16.6674C28.1423 16.7762 28.0487 16.7205 28.0487 16.7686V16.8015C28.0483 16.8052 28.0487 16.809 28.05 16.8126C28.0512 16.8161 28.0533 16.8194 28.0559 16.822C28.0586 16.8247 28.0618 16.8268 28.0654 16.828C28.069 16.8293 28.0728 16.8297 28.0765 16.8293H28.4649C28.4687 16.8297 28.4725 16.8293 28.476 16.828C28.4796 16.8268 28.4828 16.8247 28.4855 16.822C28.4881 16.8194 28.4902 16.8161 28.4914 16.8126C28.4927 16.809 28.4931 16.8052 28.4927 16.8015V16.7686C28.4927 16.7521 28.4927 16.7483 28.4725 16.7408C28.4523 16.7332 28.4358 16.7205 28.4358 16.6927C28.4274 16.2752 28.4274 15.8581 28.4358 15.4414C28.4358 15.3731 28.489 15.4174 28.4927 15.368C28.4927 15.368 28.5003 15.3073 28.4649 15.3035H28.1005C28.0968 15.3031 28.093 15.3036 28.0894 15.3048C28.0859 15.3061 28.0827 15.3081 28.08 15.3108C28.0773 15.3135 28.0753 15.3167 28.074 15.3202C28.0728 15.3238 28.0723 15.3276 28.0727 15.3314V15.3642C28.0727 15.3807 28.0727 15.3807 28.0892 15.3883C28.1056 15.3959 28.1296 15.4085 28.1296 15.4364C28.1296 15.6995 28.1296 15.9665 28.1296 16.2296L27.4971 15.4515C27.4864 15.4404 27.4794 15.4263 27.4768 15.4111C27.4768 15.387 27.5135 15.4035 27.5173 15.363C27.5173 15.363 27.53 15.306 27.4933 15.2985L27.4907 15.3035ZM29.3885 16.8344C29.4985 16.8389 29.6084 16.8226 29.7124 16.7863C29.8289 16.7274 29.9263 16.6367 29.9935 16.5248C30.0606 16.4129 30.0948 16.2842 30.0919 16.1537C30.1084 16.0286 30.0973 15.9014 30.0595 15.781C30.0217 15.6606 29.9581 15.5499 29.873 15.4566C29.7385 15.3504 29.5697 15.2973 29.3986 15.3073H28.6977C28.6572 15.3073 28.6699 15.3718 28.6699 15.3718C28.6699 15.3718 28.6699 15.3921 28.6901 15.3997C28.7104 15.4073 28.7268 15.4199 28.7268 15.4477C28.7352 15.8653 28.7352 16.2823 28.7268 16.699C28.7268 16.7724 28.6737 16.723 28.6699 16.7762V16.8091C28.6695 16.8128 28.6699 16.8166 28.6712 16.8202C28.6724 16.8237 28.6745 16.827 28.6771 16.8296C28.6798 16.8323 28.683 16.8343 28.6866 16.8356C28.6902 16.8369 28.694 16.8373 28.6977 16.8369H29.3898L29.3885 16.8344ZM7.9742 16.8344C8.01469 16.8344 8.00204 16.7699 8.00204 16.7699C8.00204 16.7458 7.9742 16.742 7.9742 16.742C7.90968 16.742 7.87299 16.6535 7.8325 16.5839L7.61363 16.2106L7.64652 16.2031C7.73306 16.1726 7.8076 16.1153 7.85927 16.0395C7.91094 15.9637 7.93702 15.8734 7.93372 15.7818C7.94135 15.6581 7.90405 15.5359 7.82871 15.4376C7.77098 15.3869 7.70349 15.3485 7.63039 15.3248C7.5573 15.3011 7.48012 15.2926 7.40361 15.2997H6.61161C6.57113 15.2997 6.58378 15.3642 6.58378 15.3642C6.58378 15.3642 6.58378 15.3845 6.60402 15.3921C6.62426 15.3997 6.64071 15.4123 6.64071 15.4402C6.64915 15.8577 6.64915 16.2747 6.64071 16.6914C6.64071 16.7597 6.58378 16.7154 6.58378 16.7648V16.7977C6.58338 16.8014 6.58383 16.8052 6.58508 16.8088C6.58634 16.8123 6.58838 16.8156 6.59105 16.8182C6.59372 16.8209 6.59695 16.823 6.60051 16.8242C6.60407 16.8255 6.60786 16.8259 6.61161 16.8255H7.00002C7.04051 16.8255 7.02785 16.761 7.02785 16.761C7.02785 16.761 7.02785 16.7408 7.00761 16.7332C6.98737 16.7256 6.97092 16.7129 6.97092 16.6889C6.97092 16.5345 6.97092 16.3814 6.97092 16.2271H7.25432L7.49723 16.6446C7.51351 16.6682 7.5259 16.6943 7.53392 16.7218C7.54151 16.742 7.48964 16.7218 7.48964 16.7623V16.7952C7.48924 16.7989 7.48969 16.8027 7.49095 16.8063C7.4922 16.8098 7.49424 16.8131 7.49691 16.8157C7.49958 16.8184 7.50281 16.8204 7.50637 16.8217C7.50993 16.8229 7.51372 16.8234 7.51748 16.823H7.96661L7.9742 16.8344ZM43.2573 15.3048H42.836C42.7955 15.3048 42.8082 15.3693 42.8082 15.3693C42.8082 15.3693 42.8082 15.3895 42.8284 15.3971C42.8486 15.4047 42.8651 15.4174 42.8651 15.4414C42.8735 15.8589 42.8735 16.276 42.8651 16.6927C42.8651 16.761 42.8082 16.7167 42.8082 16.7699V16.8027C42.8078 16.8065 42.8082 16.8103 42.8095 16.8139C42.8107 16.8174 42.8128 16.8206 42.8154 16.8233C42.8181 16.826 42.8213 16.828 42.8249 16.8293C42.8284 16.8305 42.8322 16.831 42.836 16.8306H43.2004C43.2408 16.8306 43.2282 16.7661 43.2282 16.7661C43.2282 16.7661 43.2282 16.7458 43.208 16.7382C43.1877 16.7306 43.1713 16.718 43.1675 16.6901C43.1675 16.4181 43.1675 16.1474 43.1675 15.8754L43.8114 16.661C43.9051 16.7699 43.8114 16.7142 43.8114 16.7623C43.8114 16.7623 43.8038 16.823 43.8393 16.8268H44.2277C44.2314 16.8272 44.2352 16.8267 44.2388 16.8255C44.2423 16.8242 44.2456 16.8222 44.2482 16.8195C44.2509 16.8168 44.253 16.8136 44.2542 16.8101C44.2555 16.8065 44.2559 16.8027 44.2555 16.799V16.7661C44.2555 16.7496 44.2555 16.7458 44.2353 16.7382C44.2353 16.7382 44.1986 16.718 44.1986 16.6901C44.1901 16.2726 44.1901 15.8556 44.1986 15.4389C44.1986 15.3706 44.2517 15.4149 44.2555 15.3655V15.3326C44.2559 15.3289 44.2555 15.3251 44.2542 15.3215C44.253 15.318 44.2509 15.3147 44.2482 15.3121C44.2456 15.3094 44.2423 15.3073 44.2388 15.3061C44.2352 15.3048 44.2314 15.3044 44.2277 15.3048H43.8633C43.8596 15.3044 43.8558 15.3048 43.8522 15.3061C43.8486 15.3073 43.8454 15.3094 43.8427 15.3121C43.8401 15.3147 43.838 15.318 43.8368 15.3215C43.8355 15.3251 43.8351 15.3289 43.8355 15.3326V15.3655C43.8355 15.382 43.8355 15.3858 43.8557 15.3933C43.876 15.4009 43.8924 15.4136 43.8924 15.4376C43.8924 15.7008 43.8924 15.9677 43.8924 16.2309L43.2598 15.4528C43.2492 15.4416 43.2421 15.4275 43.2396 15.4123C43.2396 15.3883 43.2763 15.4047 43.2801 15.3642C43.2801 15.3642 43.2927 15.3073 43.256 15.2997L43.2573 15.3048ZM10.1807 15.3048H9.76315C9.72267 15.3048 9.73532 15.3693 9.73532 15.3693C9.73532 15.3693 9.73532 15.3895 9.75556 15.3971C9.77581 15.4047 9.79225 15.4174 9.79225 15.4414C9.80069 15.8589 9.80069 16.276 9.79225 16.6927C9.79225 16.761 9.73912 16.7167 9.73532 16.7699C9.73532 16.7699 9.72773 16.8306 9.76315 16.8344H10.1275C10.168 16.8344 10.1554 16.7699 10.1554 16.7699C10.1554 16.7699 10.1554 16.7496 10.1351 16.742C10.1149 16.7344 10.0984 16.7218 10.0984 16.6939C10.0984 16.4219 10.0984 16.1512 10.0984 15.8792L10.7424 16.6648C10.836 16.7736 10.7424 16.718 10.7424 16.7661V16.799C10.742 16.8027 10.7424 16.8065 10.7437 16.8101C10.745 16.8136 10.747 16.8168 10.7497 16.8195C10.7523 16.8222 10.7556 16.8242 10.7591 16.8255C10.7627 16.8267 10.7665 16.8272 10.7702 16.8268H11.1599C11.2004 16.8268 11.1877 16.7623 11.1877 16.7623C11.1877 16.7623 11.1877 16.742 11.1675 16.7344C11.1473 16.7268 11.1308 16.7142 11.1308 16.6864C11.1224 16.2688 11.1224 15.8518 11.1308 15.4351C11.1308 15.3668 11.1839 15.4111 11.1877 15.3617C11.1877 15.3617 11.1953 15.301 11.1599 15.2972H10.7955C10.7918 15.2968 10.788 15.2972 10.7844 15.2985C10.7809 15.2998 10.7776 15.3018 10.775 15.3045C10.7723 15.3071 10.7703 15.3104 10.769 15.3139C10.7677 15.3175 10.7673 15.3213 10.7677 15.325V15.3579C10.7677 15.3744 10.7677 15.3782 10.7879 15.3858C10.7879 15.3858 10.8246 15.406 10.8246 15.43C10.8246 15.6932 10.8246 15.9601 10.8246 16.2233L10.192 15.4452C10.1814 15.434 10.1744 15.4199 10.1718 15.4047C10.1718 15.3807 10.2085 15.3971 10.2123 15.3567V15.3187C10.2123 15.3023 10.2123 15.2947 10.1883 15.2909L10.1807 15.3048ZM40.3929 16.8356C40.5017 16.8402 40.6104 16.8238 40.713 16.7876C40.829 16.7281 40.9261 16.6373 40.9932 16.5255C41.0602 16.4137 41.0947 16.2853 41.0926 16.155C41.1197 15.9195 41.0544 15.6828 40.9104 15.4946C40.8434 15.4304 40.7639 15.3807 40.6768 15.3487C40.5897 15.3167 40.497 15.303 40.4043 15.3086H39.7072C39.7035 15.3082 39.6997 15.3086 39.6961 15.3099C39.6926 15.3111 39.6893 15.3132 39.6867 15.3158C39.684 15.3185 39.682 15.3217 39.6807 15.3253C39.6794 15.3289 39.679 15.3327 39.6794 15.3364V15.3693C39.6794 15.3858 39.6794 15.3858 39.6958 15.3933C39.7123 15.4009 39.7363 15.4136 39.7363 15.4414C39.7448 15.8589 39.7448 16.276 39.7363 16.6927C39.7363 16.761 39.6832 16.7167 39.6794 16.7699C39.6794 16.7699 39.6718 16.8306 39.7072 16.8344H40.3993L40.3929 16.8356ZM24.2114 15.3048H23.7332C23.7129 15.3048 23.7053 15.3124 23.7053 15.3326V15.3655C23.7053 15.382 23.7053 15.3858 23.7256 15.3933C23.7458 15.4009 23.7623 15.4136 23.7623 15.4376C23.7707 15.8551 23.7707 16.2722 23.7623 16.6889C23.7623 16.7572 23.7053 16.7129 23.7053 16.7661V16.799C23.7053 16.8192 23.7129 16.8268 23.7332 16.8268H24.0975C24.1178 16.8268 24.1254 16.8192 24.1254 16.799V16.7661C24.1254 16.7496 24.1254 16.7496 24.1089 16.7382C24.0925 16.7268 24.0684 16.718 24.0684 16.6901C24.0684 16.4371 24.0684 16.1752 24.0684 15.9171L24.4695 16.7926C24.4724 16.7971 24.4763 16.8007 24.4809 16.8032C24.4856 16.8058 24.4908 16.8071 24.4961 16.8071C24.5014 16.8071 24.5066 16.8058 24.5112 16.8032C24.5158 16.8007 24.5198 16.7971 24.5226 16.7926L24.9515 15.907V16.68C24.9515 16.7572 24.8946 16.7079 24.8946 16.7572V16.7901C24.8946 16.8103 24.9022 16.8179 24.9224 16.8179H25.3108C25.3311 16.8179 25.3387 16.8103 25.3387 16.7901V16.7572C25.3387 16.7408 25.3387 16.737 25.3184 16.7294C25.2982 16.7218 25.2919 16.7104 25.2919 16.6851C25.2834 16.2676 25.2834 15.8505 25.2919 15.4338C25.2919 15.3655 25.345 15.4098 25.3488 15.3605V15.3276C25.3488 15.3111 25.3488 15.3073 25.3286 15.2997H24.8503C24.8301 15.2997 24.8225 15.3073 24.8225 15.3276V15.3605C24.8233 15.367 24.826 15.3731 24.8303 15.378C24.8345 15.383 24.8402 15.3866 24.8465 15.3883C24.8794 15.3883 24.8668 15.4123 24.863 15.4326C24.8592 15.4528 24.863 15.4326 24.863 15.4402C24.8621 15.4421 24.8616 15.4443 24.8616 15.4465C24.8616 15.4487 24.8621 15.4508 24.863 15.4528C24.863 15.4528 24.863 15.4655 24.8554 15.4693L24.5391 16.1373L24.2266 15.4566C24.1861 15.363 24.2544 15.3997 24.2595 15.3592V15.3263C24.2595 15.306 24.2519 15.2985 24.2317 15.2985L24.2114 15.3048ZM42.1148 15.3048H41.6758C41.6556 15.3048 41.648 15.3124 41.648 15.3326V15.3655C41.648 15.382 41.648 15.382 41.6644 15.3896C41.6809 15.3971 41.7049 15.4262 41.7011 15.4629C41.7011 15.4629 41.7011 15.4705 41.7011 15.4756C41.7011 15.4806 41.7011 15.4832 41.7011 15.4882C41.7011 15.4933 41.7011 15.5009 41.6935 15.5047C41.5443 15.8842 41.3861 16.2638 41.2356 16.6433C41.228 16.6636 41.2191 16.68 41.2115 16.6965C41.1786 16.7572 41.1381 16.7167 41.1343 16.7699V16.8027C41.1343 16.823 41.1419 16.8306 41.1622 16.8306H41.5708C41.5911 16.8306 41.5987 16.823 41.5987 16.8027V16.7699C41.5987 16.7534 41.5987 16.7534 41.5822 16.742C41.5658 16.7306 41.5341 16.7142 41.5417 16.6813V16.6737C41.5417 16.6737 41.5417 16.6661 41.5417 16.661C41.5417 16.656 41.5417 16.6535 41.5417 16.6446L41.6189 16.4548H42.1414L42.2186 16.6446C42.2755 16.7825 42.1781 16.7053 42.1743 16.7711V16.804C42.1743 16.8243 42.1743 16.8318 42.2021 16.8318H42.6601C42.6804 16.8318 42.688 16.8243 42.688 16.804V16.7711C42.6878 16.7644 42.6853 16.758 42.6809 16.7529C42.6765 16.7479 42.6705 16.7444 42.6639 16.7433C42.6196 16.7306 42.5956 16.6864 42.5754 16.6383C42.4134 16.2587 42.2553 15.8691 42.0933 15.4882C42.0854 15.4734 42.0811 15.457 42.0807 15.4402C42.0807 15.3794 42.1288 15.4161 42.1338 15.3668V15.3187C42.1338 15.2985 42.1338 15.2947 42.1098 15.2909L42.1148 15.3048ZM46.9389 15.3048H46.4974C46.4772 15.3048 46.4696 15.3124 46.4696 15.3326V15.3655C46.4696 15.382 46.4696 15.382 46.486 15.3896C46.5025 15.3971 46.5303 15.4262 46.5227 15.4629C46.5227 15.4629 46.5227 15.4705 46.5227 15.4756C46.5227 15.4806 46.5227 15.4832 46.5227 15.4882C46.5219 15.4944 46.5193 15.5001 46.5151 15.5047C46.3658 15.8842 46.2077 16.2638 46.0571 16.6433C46.0495 16.6636 46.0407 16.68 46.0331 16.6965C46.0002 16.7572 45.9597 16.7167 45.9559 16.7699V16.8027C45.9559 16.823 45.9635 16.8306 45.9837 16.8306H46.3924C46.4126 16.8306 46.4202 16.823 46.4202 16.8027V16.7699C46.4202 16.7534 46.4202 16.7534 46.4038 16.742C46.3873 16.7306 46.3557 16.718 46.3633 16.6813V16.6737C46.3633 16.6737 46.3633 16.6661 46.3633 16.661C46.3633 16.656 46.3633 16.6535 46.3633 16.6446L46.4405 16.4548H46.963L47.0402 16.6446C47.0971 16.7825 46.9997 16.7053 46.9959 16.7711V16.804C46.9959 16.8243 47.0035 16.8318 47.0237 16.8318H47.4817C47.5019 16.8318 47.5095 16.8243 47.5095 16.804V16.7711C47.5093 16.7644 47.5069 16.758 47.5025 16.7529C47.4981 16.7479 47.4921 16.7444 47.4855 16.7433C47.4412 16.7306 47.4172 16.6864 47.3969 16.6383C47.2312 16.2587 47.0768 15.8691 46.9149 15.4882C46.907 15.4734 46.9027 15.457 46.9023 15.4402C46.9023 15.3794 46.9503 15.4161 46.9554 15.3668V15.3187C46.9554 15.2985 46.9554 15.2947 46.9314 15.2909L46.9389 15.3048ZM9.104 15.3048H8.66499C8.64474 15.3048 8.63715 15.3124 8.63715 15.3326V15.3655C8.63715 15.382 8.63715 15.382 8.6536 15.3896C8.67005 15.3971 8.69788 15.4262 8.69029 15.4629C8.6912 15.4649 8.69167 15.4671 8.69167 15.4693C8.69167 15.4714 8.6912 15.4736 8.69029 15.4756C8.69029 15.4756 8.69029 15.4832 8.69029 15.4882C8.69029 15.4933 8.69029 15.5009 8.6827 15.5047C8.53341 15.8842 8.3702 16.2638 8.22091 16.6509C8.21332 16.6674 8.20826 16.6838 8.20067 16.699C8.16777 16.7597 8.12729 16.7192 8.12349 16.7724V16.8053C8.12349 16.8255 8.13108 16.8331 8.15133 16.8331H8.55998C8.58022 16.8331 8.58781 16.8255 8.58781 16.8053V16.7724C8.58781 16.7559 8.58781 16.7559 8.57136 16.7445C8.55492 16.7332 8.52329 16.7167 8.53088 16.6838V16.6762C8.53088 16.6762 8.53088 16.6686 8.53088 16.6636C8.53088 16.6585 8.53088 16.656 8.53088 16.6471L8.61185 16.4574H9.13436L9.21154 16.6471C9.26847 16.785 9.17105 16.7079 9.16726 16.7736V16.8065C9.16726 16.8268 9.17485 16.8344 9.19509 16.8344H9.65308C9.67333 16.8344 9.68092 16.8268 9.68092 16.8065V16.7736C9.68092 16.7496 9.65308 16.7458 9.65308 16.7458C9.6088 16.7332 9.58856 16.6851 9.56832 16.6446C9.40638 16.265 9.24823 15.8754 9.08629 15.4946C9.07837 15.4797 9.07404 15.4633 9.07364 15.4465C9.07364 15.3858 9.12171 15.4224 9.12677 15.3731V15.3402C9.12677 15.32 9.12677 15.3162 9.10273 15.3124L9.104 15.3048ZM31.142 15.2807H30.7005C30.6802 15.2807 30.6726 15.2883 30.6726 15.3086V15.3453C30.6726 15.3617 30.6726 15.3617 30.6891 15.3693C30.7055 15.3769 30.7296 15.406 30.722 15.4427C30.7229 15.4447 30.7234 15.4468 30.7234 15.449C30.7234 15.4512 30.7229 15.4534 30.722 15.4553C30.722 15.4553 30.722 15.4629 30.722 15.468C30.722 15.4731 30.722 15.4806 30.7144 15.4844C30.5651 15.864 30.407 16.2435 30.2564 16.6231C30.2488 16.6433 30.2399 16.6598 30.2324 16.68C30.1957 16.7445 30.159 16.7003 30.1552 16.7483V16.785C30.1552 16.8053 30.1628 16.8129 30.183 16.8129H30.5917C30.6119 16.8129 30.6195 16.8053 30.6195 16.785V16.7483C30.6195 16.7319 30.6195 16.7319 30.6031 16.7205C30.5866 16.7091 30.555 16.6965 30.5626 16.6598V16.6522C30.5626 16.6522 30.5626 16.6446 30.5626 16.6395C30.5626 16.6345 30.5626 16.6319 30.5626 16.6231L30.6397 16.4333H31.1623L31.2394 16.6231C31.2926 16.7572 31.1989 16.6838 31.1952 16.7496V16.7863C31.1952 16.8065 31.2027 16.8141 31.223 16.8141H31.681C31.7012 16.8141 31.7088 16.8065 31.7088 16.7863V16.7496C31.7086 16.7429 31.7061 16.7365 31.7017 16.7314C31.6974 16.7263 31.6914 16.7229 31.6848 16.7218C31.6405 16.7091 31.6165 16.6648 31.5962 16.6168C31.4343 16.2372 31.2761 15.8513 31.118 15.4705C31.1101 15.4537 31.1045 15.4358 31.1015 15.4174C31.1015 15.3567 31.1496 15.3933 31.1547 15.344V15.3073C31.1547 15.2871 31.1547 15.2833 31.1306 15.2795L31.142 15.2807ZM13.8788 15.2807H13.4372C13.417 15.2807 13.4094 15.2883 13.4094 15.3086V15.3453C13.4094 15.3617 13.4094 15.3617 13.4258 15.3693C13.4423 15.3769 13.4663 15.406 13.4587 15.4427C13.4596 15.4447 13.4601 15.4468 13.4601 15.449C13.4601 15.4512 13.4596 15.4534 13.4587 15.4553C13.4587 15.4553 13.4587 15.4629 13.4587 15.468C13.4587 15.4731 13.4587 15.4806 13.4511 15.4844C13.3018 15.864 13.1437 16.2435 12.9931 16.6231C12.9855 16.6433 12.9767 16.6598 12.9691 16.68C12.9362 16.7408 12.8957 16.6965 12.8919 16.7483V16.785C12.8919 16.8053 12.8995 16.8129 12.9198 16.8129H13.3284C13.3486 16.8129 13.3562 16.8053 13.3562 16.785V16.7483C13.3562 16.7319 13.3562 16.7319 13.3398 16.7205C13.3233 16.7091 13.2917 16.6965 13.2993 16.6598V16.6522C13.2993 16.6522 13.2993 16.6446 13.2993 16.6395C13.2993 16.6345 13.2993 16.6319 13.3069 16.6231L13.3841 16.4333H13.9053L13.9825 16.6231C14.0356 16.7572 13.942 16.6838 13.9382 16.7496V16.7863C13.9382 16.8065 13.9458 16.8141 13.9661 16.8141H14.424C14.4443 16.8141 14.4519 16.8065 14.4519 16.7863V16.7496C14.4519 16.7256 14.424 16.7218 14.424 16.7218C14.3798 16.7091 14.3595 16.661 14.3393 16.6168C14.1773 16.2372 14.023 15.8513 13.861 15.4705C13.8531 15.4557 13.8488 15.4392 13.8484 15.4224C13.8408 15.3617 13.8965 15.3946 13.9015 15.3491V15.3124C13.9015 15.2921 13.9015 15.2883 13.8775 15.2845L13.8788 15.2807ZM39.0481 15.3491V15.3693C39.0481 15.3858 39.0481 15.3895 39.0683 15.3971C39.0886 15.4047 39.105 15.4174 39.1088 15.4452C39.1088 15.6983 39.1088 15.9437 39.1088 16.1904C39.1108 16.2501 39.1065 16.3099 39.0961 16.3688C39.0557 16.5712 38.7318 16.6319 38.5458 16.4953C38.5088 16.4564 38.4815 16.4093 38.4661 16.3579C38.4507 16.3064 38.4477 16.2521 38.4572 16.1993V15.4452H38.5711C38.6078 15.4452 38.5989 15.5097 38.5989 15.5097C38.5989 15.5629 38.542 15.5097 38.5382 15.5869V15.7134C38.7077 15.5869 38.8785 15.4705 39.0443 15.3453L39.0481 15.3491ZM22.7818 15.5882C22.7053 15.6013 22.633 15.6322 22.5706 15.6783C22.5081 15.7244 22.4574 15.7844 22.4224 15.8537C22.3873 15.9229 22.369 15.9993 22.3688 16.0769C22.3685 16.1545 22.3865 16.2311 22.4212 16.3005C22.4518 16.3741 22.5039 16.4367 22.5708 16.4802C22.6376 16.5237 22.7159 16.546 22.7956 16.5442C22.8753 16.5424 22.9526 16.5166 23.0174 16.4702C23.0822 16.4238 23.1315 16.3589 23.1588 16.284C23.1722 16.2468 23.1832 16.2088 23.1917 16.1702C23.209 16.1057 23.2123 16.0383 23.2014 15.9725C23.1904 15.9067 23.1654 15.844 23.1281 15.7887C23.0908 15.7334 23.042 15.6868 22.9851 15.652C22.9282 15.6171 22.8644 15.595 22.7982 15.5869L22.7818 15.5882ZM40.0526 15.6084V16.5358C40.2829 16.5358 40.5384 16.5763 40.6599 16.427C40.7096 16.3482 40.7421 16.2598 40.7554 16.1676C40.7687 16.0754 40.7625 15.9815 40.7371 15.8918C40.7262 15.8263 40.6964 15.7653 40.6515 15.7163C40.6066 15.6674 40.5484 15.6325 40.484 15.616C40.3416 15.6013 40.1981 15.5987 40.0551 15.6084H40.0526ZM29.0456 15.6084V16.5358C29.2759 16.5358 29.5315 16.5763 29.6529 16.427C29.7026 16.3482 29.7351 16.2598 29.7484 16.1676C29.7617 16.0754 29.7555 15.9815 29.7301 15.8918C29.7192 15.8263 29.6894 15.7653 29.6445 15.7163C29.5996 15.6674 29.5414 15.6325 29.4771 15.616C29.3346 15.6013 29.1911 15.5987 29.0482 15.6084H29.0456ZM5.22119 16.0462V16.4953H5.75636C5.89426 16.4953 6.02331 16.427 6.00939 16.2524C6.00939 16.1385 5.91197 16.0462 5.74624 16.0424H5.22245L5.22119 16.0462ZM41.7201 16.2043H42.0402L41.8821 15.7906C41.8302 15.9285 41.777 16.0652 41.7214 16.2043H41.7201ZM8.70927 16.2043H9.02935L8.87121 15.7906C8.81807 15.9285 8.7662 16.0664 8.70927 16.2043ZM46.5442 16.2043H46.8643L46.7062 15.7906L46.5467 16.2043H46.5442ZM30.7485 16.179H31.0686L30.9105 15.7653C30.8586 15.9032 30.8042 16.0411 30.7485 16.179ZM13.4853 16.179H13.8054L13.6472 15.7653C13.5941 15.9032 13.5422 16.0411 13.4853 16.179ZM6.9646 15.6122V15.9399C7.13855 15.9556 7.31368 15.9531 7.48711 15.9323C7.52026 15.9194 7.54839 15.8963 7.56734 15.8662C7.5863 15.8361 7.59508 15.8007 7.59239 15.7652C7.58969 15.7298 7.57567 15.6961 7.55238 15.6693C7.52909 15.6424 7.49778 15.6237 7.46307 15.616C7.30493 15.5996 7.13033 15.616 6.9646 15.616V15.6122ZM14.6201 15.0049C14.5961 15.0039 14.5722 15.0098 14.5514 15.0219C14.5305 15.034 14.5136 15.0518 14.5025 15.0733C14.4291 15.1909 14.4822 15.4009 14.6568 15.3693C14.7745 15.3491 14.7505 15.3971 14.7454 15.4022C14.7406 15.4382 14.7313 15.4735 14.7176 15.5072C14.6825 15.5935 14.6238 15.6681 14.548 15.7223C14.548 15.7223 14.548 15.759 14.5759 15.7349C14.6643 15.6689 14.7316 15.5787 14.7698 15.4752C14.808 15.3717 14.8153 15.2593 14.7909 15.1517C14.7909 15.1441 14.7909 15.1315 14.7783 15.1239C14.7672 15.0889 14.7458 15.0582 14.7169 15.0356C14.688 15.013 14.6529 14.9997 14.6164 14.9973L14.6201 15.0049ZM5.21866 15.3048V15.6843H5.76901C5.79972 15.688 5.83086 15.6848 5.86018 15.6749C5.8895 15.6651 5.91627 15.6489 5.93854 15.6274C5.95647 15.5979 5.96819 15.5651 5.97298 15.531C5.97777 15.4968 5.97552 15.462 5.96638 15.4288C5.94993 15.3478 5.86516 15.3023 5.76395 15.3023H5.21739L5.21866 15.3048ZM5.32746 10.7274V9.07508L9.57591 9.11936L10.6209 9.21678C12.0797 9.52042 11.8077 10.7109 11.8077 10.7109C11.585 11.7395 9.67333 11.8091 9.67333 11.8091L5.32746 11.8369V10.7274ZM6.97978 7.27221L5.32746 7.28486V5.85395C5.33784 5.78942 5.33784 5.72364 5.32746 5.65911V4.88609L6.54709 4.89875C6.55631 4.90017 6.5657 4.90017 6.57492 4.89875C6.65559 4.90871 6.73717 4.90871 6.81784 4.89875L8.7662 4.91899C8.72383 5.00671 8.67521 5.09127 8.6207 5.17202L8.94079 5.30993C9.02995 5.4136 9.12589 5.51123 9.22799 5.60218C9.29631 5.64646 9.68598 6.00324 9.73406 5.95516C9.78213 5.90709 10.5197 5.75653 10.5843 5.70213C10.7365 5.62906 10.8971 5.57468 11.0625 5.54019C11.2066 5.76518 11.2587 6.03696 11.208 6.29929C11.0056 7.18491 9.27227 7.2507 9.27227 7.2507H8.55492C8.4284 7.25829 8.29176 7.26335 8.14627 7.26335H6.98357L6.97978 7.27221Z" fill="white"/>
</svg>
