<svg width="12" height="8" viewBox="0 0 12 8" fill="none" xmlns="http://www.w3.org/2000/svg">
<path d="M8.727 0H1.091C0.801649 0 0.524149 0.114945 0.319546 0.319547C0.114944 0.524149 0 0.801649 0 1.091V6H1.091C1.091 6.43403 1.26342 6.85028 1.57032 7.15718C1.87722 7.46408 2.29347 7.6365 2.7275 7.6365C3.16153 7.6365 3.57778 7.46408 3.88468 7.15718C4.19158 6.85028 4.364 6.43403 4.364 6H7.364C7.364 6.43403 7.53642 6.85028 7.84332 7.15718C8.15022 7.46408 8.56647 7.6365 9.0005 7.6365C9.43453 7.6365 9.85078 7.46408 10.1577 7.15718C10.4646 6.85028 10.637 6.43403 10.637 6H12V3.273L8.727 0ZM1.091 3.273V1.091H3.273V3.273H1.091ZM2.727 6.818C2.56521 6.818 2.40706 6.77003 2.27254 6.68014C2.13802 6.59026 2.03318 6.4625 1.97127 6.31304C1.90935 6.16357 1.89315 5.99909 1.92472 5.84042C1.95628 5.68174 2.03419 5.53599 2.14859 5.42159C2.26299 5.30719 2.40874 5.22928 2.56742 5.19772C2.72609 5.16615 2.89057 5.18235 3.04004 5.24427C3.18951 5.30618 3.31726 5.41102 3.40714 5.54554C3.49703 5.68006 3.545 5.83821 3.545 6C3.54513 6.10746 3.52406 6.21389 3.483 6.31319C3.44194 6.41249 3.38169 6.50272 3.30571 6.57871C3.22972 6.65469 3.13949 6.71494 3.04019 6.756C2.94089 6.79706 2.83446 6.81813 2.727 6.818ZM6.545 3.273H4.364V1.091H6.545V3.273ZM9 6.818C8.83821 6.818 8.68006 6.77003 8.54554 6.68014C8.41102 6.59026 8.30618 6.4625 8.24427 6.31304C8.18235 6.16357 8.16615 5.99909 8.19772 5.84042C8.22928 5.68174 8.30719 5.53599 8.42159 5.42159C8.53599 5.30719 8.68174 5.22928 8.84042 5.19772C8.99909 5.16615 9.16356 5.18235 9.31304 5.24427C9.46251 5.30618 9.59026 5.41102 9.68014 5.54554C9.77003 5.68006 9.818 5.83821 9.818 6C9.81813 6.10746 9.79706 6.21389 9.756 6.31319C9.71494 6.41249 9.65469 6.50272 9.57871 6.57871C9.50272 6.65469 9.41249 6.71494 9.31319 6.756C9.21389 6.79706 9.10746 6.81813 9 6.818ZM7.636 3.273V1.091H8.181L10.363 3.273H7.636Z" fill="#009237"/>
</svg>
