<svg width="25" height="14" viewBox="0 0 25 14" fill="none" xmlns="http://www.w3.org/2000/svg">
<g style="mix-blend-mode:multiply">
<path d="M25 2.27261C24.998 2.87474 24.758 3.45164 24.3322 3.87741C23.9064 4.30318 23.3295 4.54325 22.7274 4.54523C22.5311 4.54819 22.3355 4.52121 22.1474 4.46522L18.1022 8.50043C18.1581 8.69243 18.1851 8.89173 18.1822 9.0917C18.1822 9.69444 17.9427 10.2725 17.5165 10.6987C17.0903 11.1249 16.5123 11.3643 15.9095 11.3643C15.3068 11.3643 14.7288 11.1249 14.3026 10.6987C13.8764 10.2725 13.6369 9.69444 13.6369 9.0917C13.634 8.89173 13.661 8.69243 13.7169 8.50043L10.818 5.60278C10.4314 5.70872 10.0234 5.70872 9.63673 5.60278L4.46522 10.7843C4.52121 10.9724 4.54819 11.168 4.54523 11.3643C4.54523 11.8138 4.41194 12.2532 4.16222 12.6269C3.91251 13.0006 3.55757 13.2919 3.14231 13.4639C2.72704 13.6359 2.27009 13.681 1.82925 13.5933C1.38841 13.5056 0.983465 13.2891 0.665634 12.9713C0.347804 12.6535 0.131358 12.2485 0.0436686 11.8077C-0.0440207 11.3668 0.000984737 10.9099 0.172993 10.4946C0.345002 10.0794 0.636289 9.72443 1.01002 9.47471C1.38375 9.22499 1.82313 9.0917 2.27261 9.0917C2.4689 9.08874 2.66449 9.11572 2.85264 9.17171L8.0329 4.0002C7.97693 3.80819 7.94997 3.6089 7.9529 3.40892C7.9529 2.80619 8.19233 2.22814 8.61853 1.80194C9.04473 1.37574 9.62278 1.13631 10.2255 1.13631C10.8282 1.13631 11.4063 1.37574 11.8325 1.80194C12.2587 2.22814 12.4981 2.80619 12.4981 3.40892C12.5011 3.6089 12.4741 3.80819 12.4181 4.0002L15.3158 6.89784C15.7024 6.7919 16.1104 6.7919 16.4971 6.89784L20.531 2.85264C20.475 2.66449 20.4481 2.4689 20.451 2.27261C20.451 1.66988 20.6905 1.09183 21.1167 0.665633C21.5429 0.239435 22.1209 0 22.7236 0C23.3264 0 23.9044 0.239435 24.3306 0.665633C24.7568 1.09183 24.9963 1.66988 24.9963 2.27261H25Z" fill="#009B3A"/>
</g>
</svg>
