<svg width="35" height="25" viewBox="0 0 35 25" fill="none" xmlns="http://www.w3.org/2000/svg">
<path d="M12.25 12.25C15.6275 12.25 18.375 9.5025 18.375 6.125C18.375 2.7475 15.6275 0 12.25 0C8.8725 0 6.125 2.7475 6.125 6.125C6.125 9.5025 8.8725 12.25 12.25 12.25ZM12.25 3.5C13.7025 3.5 14.875 4.6725 14.875 6.125C14.875 7.5775 13.7025 8.75 12.25 8.75C10.7975 8.75 9.625 7.5775 9.625 6.125C9.625 4.6725 10.7975 3.5 12.25 3.5ZM12.25 15.3125C8.155 15.3125 0 17.36 0 21.4375V24.5H24.5V21.4375C24.5 17.36 16.345 15.3125 12.25 15.3125ZM4.095 21C5.565 19.985 9.1175 18.8125 12.25 18.8125C15.3825 18.8125 18.935 19.985 20.405 21H4.095ZM24.57 15.4175C26.6 16.8875 28 18.8475 28 21.4375V24.5H35V21.4375C35 17.9025 28.875 15.89 24.57 15.4175ZM22.75 12.25C26.1275 12.25 28.875 9.5025 28.875 6.125C28.875 2.7475 26.1275 0 22.75 0C21.805 0 20.93 0.2275 20.125 0.6125C21.2275 2.17 21.875 4.0775 21.875 6.125C21.875 8.1725 21.2275 10.08 20.125 11.6375C20.93 12.0225 21.805 12.25 22.75 12.25Z" fill="#27AE60"/>
</svg>
