<svg width="25" height="7" viewBox="0 0 25 7" fill="none" xmlns="http://www.w3.org/2000/svg">
<g style="mix-blend-mode:multiply">
<path d="M3.125 0C2.50693 0 1.90275 0.183278 1.38884 0.526657C0.874941 0.870036 0.474402 1.35809 0.237878 1.92911C0.00135401 2.50013 -0.0605314 3.12847 0.0600474 3.73466C0.180626 4.34085 0.478254 4.89767 0.915293 5.33471C1.35233 5.77175 1.90915 6.06937 2.51534 6.18995C3.12153 6.31053 3.74987 6.24865 4.32089 6.01212C4.89191 5.7756 5.37996 5.37506 5.72334 4.86116C6.06672 4.34725 6.25 3.74307 6.25 3.125C6.24769 2.29691 5.91771 1.50339 5.33216 0.917842C4.74661 0.332291 3.95309 0.00230897 3.125 0V0ZM21.875 0C21.2569 0 20.6527 0.183278 20.1388 0.526657C19.6249 0.870036 19.2244 1.35809 18.9879 1.92911C18.7514 2.50013 18.6895 3.12847 18.81 3.73466C18.9306 4.34085 19.2283 4.89767 19.6653 5.33471C20.1023 5.77175 20.6592 6.06937 21.2653 6.18995C21.8715 6.31053 22.4999 6.24865 23.0709 6.01212C23.6419 5.7756 24.13 5.37506 24.4733 4.86116C24.8167 4.34725 25 3.74307 25 3.125C24.9977 2.29691 24.6677 1.50339 24.0822 0.917842C23.4966 0.332291 22.7031 0.00230897 21.875 0V0ZM12.5 0C11.8819 0 11.2777 0.183278 10.7638 0.526657C10.2499 0.870036 9.8494 1.35809 9.61288 1.92911C9.37635 2.50013 9.31447 3.12847 9.43505 3.73466C9.55563 4.34085 9.85325 4.89767 10.2903 5.33471C10.7273 5.77175 11.2842 6.06937 11.8903 6.18995C12.4965 6.31053 13.1249 6.24865 13.6959 6.01212C14.2669 5.7756 14.755 5.37506 15.0983 4.86116C15.4417 4.34725 15.625 3.74307 15.625 3.125C15.6227 2.29691 15.2927 1.50339 14.7072 0.917842C14.1216 0.332291 13.3281 0.00230897 12.5 0V0Z" fill="#009B3A"/>
</g>
</svg>
