<svg width="18" height="17" viewBox="0 0 18 17" fill="none" xmlns="http://www.w3.org/2000/svg">
<path d="M5.3219 1.58764L4.1114 0.377138C3.07757 1.16005 2.22905 2.16126 1.62626 3.30949C1.02347 4.45771 0.681226 5.7247 0.623901 7.02026H2.3114C2.37216 5.94659 2.67443 4.90046 3.19568 3.95984C3.71693 3.01921 4.44372 2.20834 5.3219 1.58764V1.58764ZM15.8069 7.02026H17.4944C17.4334 5.72548 17.0896 4.45977 16.4871 3.3121C15.8846 2.16442 15.038 1.16263 14.0069 0.377138L12.811 1.58764C13.6843 2.21206 14.4066 3.02412 14.9251 3.9642C15.4435 4.90427 15.7448 5.94851 15.8069 7.02026V7.02026ZM14.1397 7.44326C14.2252 6.24819 13.8919 5.06064 13.1969 4.08464C12.502 3.10865 11.4888 2.40515 10.3315 2.09501V1.51901C10.3315 1.35229 10.2987 1.1872 10.2349 1.03317C10.1711 0.879142 10.0776 0.739187 9.95968 0.621297C9.84179 0.503407 9.70183 0.409892 9.5478 0.34609C9.39377 0.282289 9.22868 0.249451 9.06196 0.249451C8.89524 0.249451 8.73015 0.282289 8.57612 0.34609C8.42209 0.409892 8.28214 0.503407 8.16425 0.621297C8.04636 0.739187 7.95284 0.879142 7.88904 1.03317C7.82524 1.1872 7.7924 1.35229 7.7924 1.51901V2.09501C6.63365 2.40262 5.61884 3.10551 4.92346 4.08212C4.22809 5.05873 3.89587 6.24765 3.98428 7.44326V11.6744L2.29678 13.3619V14.2079H15.8328V13.3675L14.1453 11.68L14.1397 7.44326ZM9.06253 16.7526C9.17595 16.7543 9.28919 16.743 9.40003 16.7189C9.66811 16.6617 9.91862 16.5412 10.1306 16.3674C10.3426 16.1936 10.5098 15.9716 10.6184 15.7199C10.7044 15.5104 10.7476 15.2859 10.7455 15.0595H7.36153C7.36597 15.508 7.54703 15.9367 7.86545 16.2526C8.18388 16.5685 8.61399 16.7461 9.06253 16.747V16.7526Z" fill="white"/>
</svg>
