<svg width="25" height="25" viewBox="0 0 25 25" fill="none" xmlns="http://www.w3.org/2000/svg">
<g style="mix-blend-mode:multiply">
<path d="M12.4875 6.25057e-06C10.0158 0.00247798 7.60025 0.73769 5.54629 2.11271C3.49232 3.48773 1.89211 5.44082 0.947928 7.72512C0.00374883 10.0094 -0.24201 12.5223 0.241716 14.9463C0.725441 17.3702 1.91694 19.5963 3.66559 21.3432C5.41424 23.0902 7.64155 24.2794 10.066 24.7607C12.4904 25.242 15.0031 24.9938 17.2864 24.0473C19.5698 23.1008 21.5213 21.4987 22.8942 19.4433C24.2672 17.388 25 14.9717 25 12.5C25 10.8574 24.6763 9.23096 24.0473 7.71357C23.4183 6.19619 22.4965 4.81764 21.3344 3.65675C20.1724 2.49585 18.7929 1.57537 17.2749 0.947922C15.7569 0.320474 14.1301 -0.00163632 12.4875 6.25057e-06ZM12.5 22.5C10.5222 22.5 8.58879 21.9135 6.9443 20.8147C5.29981 19.7159 4.01809 18.1541 3.26121 16.3268C2.50433 14.4996 2.3063 12.4889 2.69215 10.5491C3.078 8.60929 4.03041 6.82746 5.42894 5.42894C6.82746 4.03041 8.60929 3.07801 10.5491 2.69215C12.4889 2.3063 14.4996 2.50433 16.3268 3.26121C18.1541 4.01809 19.7159 5.29981 20.8147 6.9443C21.9135 8.58879 22.5 10.5222 22.5 12.5C22.5 15.1522 21.4464 17.6957 19.5711 19.5711C17.6957 21.4464 15.1522 22.5 12.5 22.5ZM13.125 6.25H11.25V13.75L17.8125 17.6875L18.75 16.15L13.125 12.8125V6.25Z" fill="#009B3A"/>
</g>
</svg>
